<?xml version="1.0" standalone="no"?>
<!DOCTYPE svg PUBLIC "-//W3C//DTD SVG 1.1//EN" "http://www.w3.org/Graphics/SVG/1.1/DTD/svg11.dtd" >
<svg xmlns="http://www.w3.org/2000/svg">
<metadata>Generated by IcoMoon</metadata>
<defs>
<font id="font-icon" horiz-adv-x="1024">
<font-face units-per-em="1024" ascent="960" descent="-64" />
<missing-glyph horiz-adv-x="1024" />
<glyph unicode="&#x20;" horiz-adv-x="512" d="" />
<glyph unicode="&#xe900;" glyph-name="service-swim" d="M424 444.8c44.8-4.8 86.4-19.2 126.4-38.4 19.2-9.6 38.4-20.8 54.4-28.8 16-9.6 32-17.6 48-25.6l-99.2 195.2-20.8 36.8-73.6 129.6c-9.6 17.6-33.6 24-51.2 14.4-17.6-11.2-24-33.6-14.4-51.2l81.6-142.4-20.8-19.2-124.8-70.4-3.2-1.6c33.6 4.8 65.6 4.8 97.6 1.6zM732.8 452.8c40 22.4 52.8 72 30.4 112-22.4 38.4-72 52.8-112 30.4s-52.8-72-30.4-112c22.4-40 73.6-52.8 112-30.4zM888 392c-11.2-38.4-30.4-73.6-56-92.8s-54.4-19.2-86.4-12.8c-32 6.4-65.6 20.8-97.6 36.8-16 8-32 16-48 25.6s-36.8 20.8-54.4 28.8c-38.4 17.6-81.6 32-126.4 38.4s-92.8 1.6-136-16c-43.2-17.6-80-46.4-105.6-81.6s-43.2-75.2-46.4-115.2c48 64 110.4 110.4 176 121.6 64 11.2 131.2-8 196.8-38.4 17.6-8 30.4-16 49.6-25.6s38.4-19.2 57.6-25.6c40-16 81.6-27.2 129.6-28.8 24 0 48 3.2 72 12.8s44.8 25.6 57.6 46.4c25.6 40 27.2 86.4 17.6 126.4z" />
<glyph unicode="&#xe901;" glyph-name="arrows_down" d="M953.6 701.6l-441.6-441.6-441.6 441.6-38.4-42.4 460.8-464.8h38.4l460.8 464.8z" />
<glyph unicode="&#xe902;" glyph-name="arrows_left" d="M724 928l-464.8-460.8v-38.4l464.8-460.8 40.8 38.4-440.8 441.6 440 441.6z" />
<glyph unicode="&#xe903;" glyph-name="service-bolling" d="M448 632c6.4 46.4 30.4 76.8 30.4 116.8 0 36.8-33.6 83.2-100.8 83.2s-100.8-46.4-100.8-83.2c0-40 24-70.4 30.4-116.8h140.8zM377.6 248c0 80 43.2 153.6 110.4 190.4-6.4 24-16 46.4-27.2 59.2h-169.6c-20.8-40-46.4-113.6-46.4-200 0-132.8 67.2-233.6 67.2-233.6h134.4c0 0 3.2 6.4 9.6 16-48 41.6-78.4 102.4-78.4 168zM312 598.4h134.4v-67.2h-134.4v67.2zM595.2 432c-100.8 0-184-83.2-184-184s84.8-182.4 184-182.4 184 83.2 184 184-83.2 182.4-184 182.4zM561.6 265.6c-9.6 0-16 6.4-16 16s6.4 16 16 16c9.6 0 16-6.4 16-16s-4.8-16-16-16zM595.2 332.8c-9.6 0-16 6.4-16 16s6.4 16 16 16c9.6 0 16-6.4 16-16 1.6-9.6-4.8-16-16-16zM628.8 265.6c-9.6 0-16 6.4-16 16s6.4 16 16 16c9.6 0 16-6.4 16-16s-6.4-16-16-16z" />
<glyph unicode="&#xe904;" glyph-name="arrows_right" d="M765.6 467.2l-464.8 460.8-40.8-38.4 440.8-441.6-442.4-441.6 42.4-38.4 464.8 460.8z" />
<glyph unicode="&#xe905;" glyph-name="arrows-up" d="M992 236l-460.8 464.8h-38.4l-460.8-464.8 38.4-40.8 441.6 440.8 441.6-440z" />
<glyph unicode="&#xe906;" glyph-name="attachment" d="M964.8 571.2c-7.2 7.2-19.2 7.2-26.4 0l-507.2-507.2c-37.6-37.6-87.2-58.4-140.8-58.4s-103.2 20.8-140.8 58.4-58.4 87.2-58.4 140.8c0 53.6 20.8 103.2 58.4 140.8l507.2 508c53.6 53.6 138.4 50.4 196.8-8s61.6-143.2 8-196.8l-476.8-477.6c-26.4-26.4-70.4-26.4-96.8 0s-26.4 70.4 0 96.8l323.2 323.2c7.2 7.2 7.2 19.2 0 26.4s-19.2 7.2-26.4 0l-323.2-324c-40.8-40.8-40.8-108 0-149.6 41.6-41.6 108-40.8 149.6 0l476.8 477.6c68.8 68.8 65.6 176-8 249.6s-180.8 76.8-249.6 8l-507.2-508c-44.8-44.8-68.8-104-68.8-167.2s24.8-122.4 68.8-167.2c44.8-44.8 104-68.8 167.2-68.8s122.4 24.8 167.2 68.8l507.2 508c7.2 7.2 7.2 18.4 0 26.4z" />
<glyph unicode="&#xe907;" glyph-name="bookmark" d="M824-56.8l-312 252.8-312-252.8v877.6c0 72.8 59.2 132 132 132h360c72.8 0 132-59.2 132-132v-877.6zM512 237.6l280-227.2v810.4c0 55.2-44.8 100-100 100h-360c-55.2 0-100-44.8-100-100v-810.4l280 227.2z" />
<glyph unicode="&#xe908;" glyph-name="bookmark-check" d="M679.2 928h-334.4c-71.2 0-128.8-57.6-128.8-129.6v-822.4c0-3.2 4-4.8 6.4-3.2l287.2 233.6c1.6 0.8 3.2 0.8 4.8 0l287.2-233.6c2.4-2.4 6.4 0 6.4 3.2v822.4c0 72-57.6 129.6-128.8 129.6zM467.2 519.2l-93.6 101.6c-1.6 1.6-1.6 4 0 5.6l12 10.4c1.6 1.6 4 1.6 5.6 0l78.4-88c1.6-1.6 4-1.6 5.6 0l172 192c1.6 1.6 4 1.6 5.6 0l12-10.4c1.6-1.6 1.6-4 0-5.6l-184-205.6c-4-4-9.6-4-13.6 0z" />
<glyph unicode="&#xe909;" glyph-name="bookmark-fill" d="M808-32l-296 240.8-296-240.8v834.4c0 69.6 56 125.6 124.8 125.6h342.4c68.8 0 124.8-56 124.8-125.6v-834.4z" />
<glyph unicode="&#xe90a;" glyph-name="bookmark-plus" d="M808-32l-296 240.8-296-240.8v834.4c0 69.6 56 125.6 124.8 125.6h342.4c68.8 0 124.8-56 124.8-125.6v-834.4zM512 248l265.6-216v770.4c0 52-42.4 95.2-95.2 95.2h-341.6c-52 0-95.2-42.4-95.2-95.2v-770.4l266.4 216zM526.4 751.2v-106.4h101.6v-27.2h-101.6v-107.2h-28.8v108h-101.6v27.2h101.6v105.6h28.8z" />
<glyph unicode="&#xe90b;" glyph-name="chat" d="M400 520.8h208c8.8 0 16 7.2 16 16s-7.2 16-16 16h-208c-8.8 0-16-7.2-16-16s7.2-16 16-16zM608 456.8h-416c-8.8 0-16-7.2-16-16s7.2-16 16-16h416c8.8 0 16 7.2 16 16s-7.2 16-16 16zM608 360.8h-416c-8.8 0-16-7.2-16-16s7.2-16 16-16h416c8.8 0 16 7.2 16 16s-7.2 16-16 16zM896.8 887.2l-545.6 1.6c-52.8 0-95.2-42.4-95.2-95.2v-81.6h-128.8c-52.8-0.8-95.2-43.2-95.2-95.2v-338.4c0-52 42.4-95.2 95.2-95.2h96.8v-160c0-6.4 4-12.8 10.4-15.2 1.6-0.8 4-0.8 5.6-0.8 4.8 0 8.8 1.6 12 5.6l155.2 170.4 266.4 0.8c52 0 95.2 42.4 95.2 95.2v1.6l84-92.8c3.2-3.2 7.2-5.6 12-5.6 1.6 0 4 0 5.6 0.8 6.4 2.4 10.4 8 10.4 15.2v160h16.8c52 0 95.2 42.4 95.2 95.2v339.2c-0.8 52-43.2 94.4-96 94.4zM736 279.2c0-34.4-28-63.2-63.2-63.2l-272.8-0.8c-4.8 0-8.8-1.6-12-5.6l-132-144.8v134.4c0 8.8-7.2 16-16 16h-112.8c-34.4 0-63.2 28-63.2 63.2v338.4c0 34.4 28 63.2 63.2 63.2h144.8c0 0 0 0 0 0l400.8 0.8c34.4 0 63.2-28 63.2-63.2v-338.4zM960 454.4c0-34.4-28-63.2-63.2-63.2h-32.8c-8.8 0-16-7.2-16-16v-134.4l-80 88v288.8c0 52-42.4 95.2-95.2 95.2l-384.8-0.8v81.6c0 34.4 28 63.2 63.2 63.2l546.4-0.8c0 0 0 0 0 0 34.4 0 63.2-28 63.2-63.2l-0.8-338.4z" />
<glyph unicode="&#xe90c;" glyph-name="chat-fill" d="M896.8 887.2l-545.6 1.6c-52.8 0-95.2-42.4-95.2-95.2v-81.6h-128.8c-52.8-0.8-95.2-43.2-95.2-95.2v-338.4c0-52 42.4-95.2 95.2-95.2h96.8v-160c0-6.4 4-12.8 10.4-15.2 1.6-0.8 4-0.8 5.6-0.8 4.8 0 8.8 1.6 12 5.6l155.2 170.4 266.4 0.8c52 0 95.2 42.4 95.2 95.2v1.6l84-92.8c3.2-3.2 7.2-5.6 12-5.6 1.6 0 4 0 5.6 0.8 6.4 2.4 10.4 8 10.4 15.2v160h16.8c52 0 95.2 42.4 95.2 95.2v339.2c-0.8 52-43.2 94.4-96 94.4zM192 456.8h416c8.8 0 16-7.2 16-16s-7.2-16-16-16h-416c-8.8 0-16 7.2-16 16s7.2 16 16 16zM384 536.8c0 8.8 7.2 16 16 16h208c8.8 0 16-7.2 16-16s-7.2-16-16-16h-208c-8.8 0-16 7.2-16 16zM608 328.8h-416c-8.8 0-16 7.2-16 16s7.2 16 16 16h416c8.8 0 16-7.2 16-16s-7.2-16-16-16zM960 454.4c0-34.4-28-63.2-63.2-63.2h-32.8c-8.8 0-16-7.2-16-16v-134.4l-80 88v288.8c0 52-42.4 95.2-95.2 95.2l-384.8-0.8v81.6c0 34.4 28 63.2 63.2 63.2l546.4-0.8c34.4 0 63.2-28 63.2-63.2l-0.8-338.4z" />
<glyph unicode="&#xe90d;" glyph-name="comment" d="M520 928c-260 0-472-212-472-472 0-82.4 21.6-163.2 62.4-234.4l-77.6-232.8c-1.6-5.6-0.8-12 3.2-16 3.2-3.2 7.2-4.8 12-4.8 1.6 0 2.4 0 4 0.8l253.6 67.2c65.6-33.6 140-51.2 214.4-51.2 260 0 472 212 472 472s-212 471.2-472 471.2zM520 16c-55.2 0-110.4 10.4-162.4 31.2l77.6 17.6c8.8 1.6 14.4 10.4 12 19.2-1.6 8.8-10.4 14.4-19.2 12l-124-28c0 0 0 0 0 0s0 0 0 0l-231.2-60.8 70.4 211.2c1.6 4.8 0.8 9.6-1.6 13.6-40 67.2-61.6 144.8-61.6 224 0 242.4 197.6 440 440 440s440-197.6 440-440-197.6-440-440-440zM512 560h224c8.8 0 16 7.2 16 16s-7.2 16-16 16h-224c-8.8 0-16-7.2-16-16s7.2-16 16-16zM736 464h-432c-8.8 0-16-7.2-16-16s7.2-16 16-16h432c8.8 0 16 7.2 16 16s-7.2 16-16 16zM736 336h-432c-8.8 0-16-7.2-16-16s7.2-16 16-16h432c8.8 0 16 7.2 16 16s-7.2 16-16 16z" />
<glyph unicode="&#xe90e;" glyph-name="controls" d="M168.8 224v669.6c0 9.6-8 16.8-16.8 16.8s-16.8-8-16.8-16.8v-669.6c-58.4-8.8-103.2-58.4-103.2-119.2 0-66.4 53.6-120 120-120s120 53.6 120 120c0 60.8-44.8 110.4-103.2 119.2zM152 19.2c-47.2 0-85.6 38.4-85.6 85.6s38.4 85.6 85.6 85.6 85.6-38.4 85.6-85.6c0-47.2-38.4-85.6-85.6-85.6zM528.8 573.6v320c0 9.6-8 16.8-16.8 16.8-9.6 0-16.8-8-16.8-16.8v-319.2c-61.6-6.4-109.6-59.2-109.6-122.4s48-116 109.6-122.4v-326.4c0-9.6 8-16.8 16.8-16.8 9.6 0 16.8 8 16.8 16.8v326.4c58.4 10.4 103.2 60.8 103.2 121.6s-44.8 112-103.2 122.4zM508.8 362.4c-49.6 0-89.6 40-89.6 89.6s40 89.6 89.6 89.6 89.6-40 89.6-89.6-40.8-89.6-89.6-89.6zM992 791.2c0 66.4-53.6 120-120 120s-120-53.6-120-120c0-60 44.8-110.4 103.2-118.4v-669.6c0-9.6 8-16.8 16.8-16.8s16.8 8 16.8 16.8v668.8c58.4 8.8 103.2 58.4 103.2 119.2zM872 704.8c-47.2 0-85.6 38.4-85.6 85.6s38.4 85.6 85.6 85.6 85.6-38.4 85.6-85.6-38.4-85.6-85.6-85.6z" />
<glyph unicode="&#xe90f;" glyph-name="heart" d="M752 868.8c-110.4 0-204.8-62.4-240-148.8-35.2 86.4-129.6 148.8-240 148.8-150.4 0-240-129.6-240-255.2 0-128.8 80-266.4 237.6-408.8 116-104.8 233.6-173.6 235.2-174.4l7.2-4 7.2 4c0.8 0.8 119.2 69.6 235.2 174.4 157.6 143.2 237.6 280.8 237.6 409.6 0 124.8-89.6 254.4-240 254.4zM512 61.6c-59.2 36-450.4 284.8-450.4 552.8 0 110.4 78.4 224.8 210.4 224.8 108 0 224.8-74.4 224.8-195.2h30.4c0 120.8 116.8 195.2 224.8 195.2 131.2 0 210.4-114.4 210.4-224.8 0-267.2-391.2-516-450.4-552.8z" />
<glyph unicode="&#xe910;" glyph-name="heart-fill" d="M752 868.8c-110.4 0-204.8-62.4-240-148.8-35.2 86.4-129.6 148.8-240 148.8-150.4 0-240-129.6-240-255.2 0-128.8 80-266.4 237.6-408.8 116-104.8 233.6-173.6 235.2-174.4l7.2-4 7.2 4c0.8 0.8 119.2 69.6 235.2 174.4 157.6 143.2 237.6 280.8 237.6 409.6 0 124.8-89.6 254.4-240 254.4z" />
<glyph unicode="&#xe911;" glyph-name="home" d="M984 489.6l-142.4 132.8v217.6h-164.8v-64.8l-164.8 152.8-472-438.4c-6.4-6.4-7.2-16.8-0.8-23.2s16.8-7.2 23.2-0.8l54.4 50.4v-548h789.6v548.8l54.4-50.4c3.2-3.2 7.2-4 11.2-4 4.8 0 8.8 1.6 12 5.6 6.4 5.6 6.4 16 0 21.6zM709.6 807.2h98.4v-153.6l-98.4 91.2v62.4zM413.6 0.8v346.4c0 8.8 7.2 15.2 15.2 15.2h166.4c8.8 0 15.2-7.2 15.2-15.2v-346.4c0 0-196.8 0-196.8 0zM873.6 0.8h-230.4v346.4c0 26.4-21.6 48-48 48h-166.4c-26.4 0-48-21.6-48-48v-346.4h-230.4v546.4l361.6 336 235.2-218.4 127.2-117.6v-546.4z" />
<glyph unicode="&#xe912;" glyph-name="home-fill" d="M984 489.6l-142.4 132.8v217.6h-164.8v-64.8l-164.8 152.8-472-438.4c-6.4-6.4-7.2-16.8-0.8-23.2s16.8-7.2 23.2-0.8l54.4 50.4v-548h789.6v548.8l54.4-50.4c3.2-3.2 7.2-4 11.2-4 4.8 0 8.8 1.6 12 5.6 6.4 5.6 6.4 16 0 21.6zM413.6 0.8v346.4c0 8.8 7.2 15.2 15.2 15.2h166.4c8.8 0 15.2-7.2 15.2-15.2v-346.4c0 0-196.8 0-196.8 0zM634.4 0.8h8.8v346.4c0 26.4-21.6 48-48 48h-166.4c-26.4 0-48-21.6-48-48v-346.4l0.8 319.2c0 34.4 28 62.4 62.4 62.4h150.4c28 0 32.8-22.4 32.8-50.4l7.2-331.2z" />
<glyph unicode="&#xe913;" glyph-name="map" d="M984.8 889.6c-4.8 3.2-10.4 4-16 2.4l-309.6-103.2-291.2 68.8c-0.8 0-1.6 0-2.4 0-1.6 0-4 0.8-5.6 0l-314.4-69.6c-8-1.6-13.6-8.8-13.6-16.8v-750.4c0-5.6 2.4-10.4 6.4-13.6 3.2-2.4 7.2-4 11.2-4 1.6 0 2.4 0 4 0.8l311.2 68.8 293.6-52c0.8 0 2.4 0 3.2 0 2.4 0 4 0.8 6.4 0.8 0 0 0 0 0 0l314.4 122.4c6.4 2.4 11.2 8.8 11.2 16v716c-1.6 5.6-4 10.4-8.8 13.6zM67.2 756.8l279.2 62.4v-715.2l-279.2-62.4v715.2zM380.8 818.4l261.6-61.6v-698.4l-261.6 46.4v713.6zM956.8 172l-279.2-108.8v695.2l279.2 92.8v-679.2z" />
<glyph unicode="&#xe914;" glyph-name="megaphone" d="M32 519.2c0-61.6 43.2-113.6 101.6-127.2v-211.2c0-12.8 8-24 20-28 3.2-0.8 5.6-1.6 8.8-1.6 8.8 0 17.6 4 23.2 12 5.6 7.2 121.6 157.6 405.6 157.6h41.6l-112.8-272c-8-22.4 52.8-34.4 86.4-22.4l121.6 294.4h96c92 0 167.2 75.2 167.2 167.2v62.4c0 92-75.2 167.2-167.2 167.2h-232.8c-81.6 0-202.4 18.4-412 164-8.8 6.4-20.8 7.2-30.4 1.6-9.6-4.8-16-15.2-16-25.6v-211.2c-57.6-12.8-101.6-64.8-100.8-127.2zM824.8 380h-102.4v280h102.4c60 0 108.8-48.8 108.8-108.8v-62.4c0-60-48.8-108.8-108.8-108.8zM192 803.2c196-126.4 316-143.2 400-143.2h72v-280h-72c-207.2 0-335.2-74.4-400-128v551.2zM90.4 519.2c0 29.6 17.6 54.4 43.2 66.4v-132c-25.6 11.2-43.2 36.8-43.2 65.6z" />
<glyph unicode="&#xe915;" glyph-name="microphone" d="M760 464.8c-8.8 0-16.8-7.2-16.8-16.8v-99.2c0-128-104-232-232-232s-232 104-232 232v99.2c0 8.8-7.2 16.8-16.8 16.8-8.8 0-16.8-7.2-16.8-16.8v-99.2c0-140.8 109.6-255.2 248-264v-84h-80.8c-8.8 0-16.8-7.2-16.8-16.8 0-8.8 7.2-16.8 16.8-16.8h198.4c8.8 0 16.8 7.2 16.8 16.8 0 8.8-7.2 16.8-16.8 16.8h-82.4v84c138.4 8.8 248 123.2 248 264v99.2c0 8.8-7.2 16.8-16.8 16.8zM512 166.4c100 0 182.4 81.6 182.4 182.4v396.8c0 100.8-82.4 182.4-182.4 182.4s-182.4-81.6-182.4-182.4v-397.6c0-100 82.4-181.6 182.4-181.6zM363.2 745.6c0 82.4 67.2 148.8 148.8 148.8s148.8-67.2 148.8-148.8v-397.6c0-81.6-66.4-148-148.8-148s-148.8 67.2-148.8 148.8v396.8z" />
<glyph unicode="&#xe916;" glyph-name="pin" d="M642.4 600.8c0 72-58.4 130.4-130.4 130.4s-130.4-58.4-130.4-130.4 58.4-130.4 130.4-130.4 130.4 58.4 130.4 130.4zM419.2 600.8c0 51.2 41.6 92.8 92.8 92.8s92.8-41.6 92.8-92.8-41.6-92.8-92.8-92.8-92.8 41.6-92.8 92.8zM511.2-32l11.2 13.6c12.8 15.2 317.6 374.4 316.8 608.8-0.8 185.6-147.2 337.6-327.2 337.6-180.8 0-327.2-152-327.2-338.4 0-233.6 302.4-593.6 315.2-608.8l11.2-12.8zM512 898.4c163.2 0 296.8-138.4 297.6-308.8 0.8-198.4-242.4-507.2-297.6-575.2-56 68.8-296.8 376.8-296.8 575.2-0.8 170.4 132.8 308.8 296.8 308.8z" />
<glyph unicode="&#xe917;" glyph-name="profile" d="M992 448c0 264.8-215.2 480-480 480s-480-215.2-480-480c0-140 60-265.6 156-353.6l-0.8-0.8 15.2-12.8c0.8-0.8 2.4-1.6 3.2-2.4 8-7.2 16.8-13.6 25.6-20 3.2-2.4 5.6-4 8.8-6.4 9.6-6.4 19.2-12.8 28.8-18.4 2.4-1.6 4-2.4 6.4-4 10.4-6.4 21.6-12 32.8-16.8 0.8 0 1.6-0.8 2.4-0.8 36.8-16.8 75.2-29.6 116-36.8 0.8 0 2.4 0 3.2-0.8 12.8-2.4 25.6-4 38.4-4.8 1.6 0 3.2 0 4.8 0 12.8-0.8 25.6-1.6 39.2-1.6 12.8 0 25.6 0.8 38.4 1.6 1.6 0 3.2 0 4.8 0 12.8 0.8 25.6 3.2 38.4 4.8 0.8 0 2.4 0 3.2 0.8 40 7.2 78.4 19.2 114.4 36 1.6 0.8 2.4 0.8 4 1.6 10.4 4.8 21.6 10.4 32 16 2.4 1.6 4.8 3.2 8 4.8 9.6 5.6 18.4 11.2 27.2 17.6 3.2 2.4 6.4 4.8 9.6 7.2 8 5.6 15.2 11.2 22.4 16.8 1.6 1.6 3.2 2.4 4.8 4l16 13.6-0.8 0.8c96.8 87.2 157.6 213.6 157.6 354.4zM67.2 448c0 245.6 200 444.8 444.8 444.8s444.8-200 444.8-444.8c0-132-58.4-251.2-149.6-332.8-4.8 3.2-10.4 6.4-15.2 9.6l-148 73.6c-13.6 6.4-21.6 20-21.6 34.4v52c3.2 4 7.2 8.8 10.4 14.4 19.2 27.2 34.4 56.8 45.6 89.6 22.4 10.4 36 32.8 36 57.6v61.6c0 15.2-5.6 29.6-15.2 41.6v80.8c0.8 8.8 4 60-32.8 102.4-32 36.8-84 55.2-154.4 55.2s-122.4-18.4-154.4-55.2c-37.6-41.6-34.4-92.8-33.6-102.4v-81.6c-9.6-11.2-15.2-26.4-15.2-41.6v-61.6c0-19.2 8.8-36.8 23.2-49.6 14.4-55.2 43.2-97.6 53.6-111.2v-50.4c0-14.4-8-27.2-20-34.4l-138.4-75.2c-4-2.4-8.8-4.8-12.8-8-90.4 81.6-147.2 200-147.2 331.2zM772.8 88c-6.4-4.8-12-8.8-18.4-12.8-3.2-1.6-5.6-4-8.8-5.6-8-4.8-16.8-9.6-24.8-14.4-1.6-0.8-4-1.6-5.6-3.2-20-10.4-40-18.4-60.8-25.6-0.8 0-1.6-0.8-2.4-0.8-11.2-4-22.4-7.2-33.6-9.6 0 0 0 0 0 0-11.2-2.4-22.4-4.8-34.4-7.2 0 0-0.8 0-0.8 0-11.2-1.6-21.6-3.2-32.8-4-1.6 0-4 0-5.6-0.8-11.2-0.8-21.6-1.6-32.8-1.6s-22.4 0.8-32.8 1.6c-1.6 0-4 0-5.6 0.8-11.2 0.8-22.4 2.4-32.8 4-0.8 0-0.8 0-1.6 0-23.2 4-45.6 9.6-68 16.8-0.8 0-1.6 0.8-2.4 0.8-11.2 4-21.6 8-32.8 12.8 0 0 0 0 0 0-10.4 4-20 8.8-29.6 14.4-1.6 0.8-2.4 1.6-4 1.6-8.8 4.8-17.6 9.6-26.4 15.2-2.4 1.6-4.8 3.2-7.2 4.8-8 4.8-16 10.4-23.2 16-0.8 0.8-1.6 1.6-2.4 1.6 0.8 0 0.8 0.8 1.6 0.8l138.4 75.2c24 12.8 38.4 37.6 38.4 64.8v63.2l-4 4.8c0 0.8-38.4 46.4-52 108.8l-1.6 7.2-5.6 4c-8 5.6-13.6 14.4-13.6 24v61.6c0 8 3.2 16 9.6 21.6l5.6 5.6v100c0 0.8-5.6 42.4 24 76 25.6 28.8 68.8 43.2 128.8 43.2s103.2-14.4 128-43.2c29.6-33.6 24.8-76 24.8-76.8v-99.2l5.6-5.6c6.4-5.6 9.6-13.6 9.6-21.6v-61.6c0-12.8-8.8-24-20.8-27.2l-8.8-2.4-3.2-8.8c-10.4-32-24.8-61.6-43.2-88-4.8-6.4-8.8-12-12.8-16.8l-4-4.8v-64.8c0-28 16-53.6 40.8-66.4l148-73.6c0.8-0.8 1.6-0.8 2.4-1.6-2.4-0.8-4-1.6-6.4-3.2z" />
<glyph unicode="&#xe918;" glyph-name="profile-fill" d="M992 448c0 264.8-215.2 480-480 480s-480-215.2-480-480c0-140 60-265.6 156-353.6l-0.8-0.8 15.2-12.8c0.8-0.8 2.4-1.6 3.2-2.4 8-7.2 16.8-13.6 25.6-20 3.2-2.4 5.6-4 8.8-6.4 9.6-6.4 19.2-12.8 28.8-18.4 2.4-1.6 4-2.4 6.4-4 10.4-6.4 21.6-12 32.8-16.8 0.8 0 1.6-0.8 2.4-0.8 36.8-16.8 75.2-29.6 116-36.8 0.8 0 2.4 0 3.2-0.8 12.8-2.4 25.6-4 38.4-4.8 1.6 0 3.2 0 4.8 0 12.8-0.8 25.6-1.6 39.2-1.6 12.8 0 25.6 0.8 38.4 1.6 1.6 0 3.2 0 4.8 0 12.8 0.8 25.6 3.2 38.4 4.8 0.8 0 2.4 0 3.2 0.8 40 7.2 78.4 19.2 114.4 36 1.6 0.8 2.4 0.8 4 1.6 10.4 4.8 21.6 10.4 32 16 2.4 1.6 4.8 3.2 8 4.8 9.6 5.6 18.4 11.2 27.2 17.6 3.2 2.4 6.4 4.8 9.6 7.2 8 5.6 15.2 11.2 22.4 16.8 1.6 1.6 3.2 2.4 4.8 4l16 13.6-0.8 0.8c96.8 87.2 157.6 213.6 157.6 354.4zM67.2 448c0 245.6 200 444.8 444.8 444.8s444.8-200 444.8-444.8c0-132-58.4-251.2-149.6-332.8-4.8 3.2-10.4 6.4-15.2 9.6l-148 73.6c-13.6 6.4-21.6 20-21.6 34.4v52c3.2 4 7.2 8.8 10.4 14.4 19.2 27.2 34.4 56.8 45.6 89.6 22.4 10.4 36 32.8 36 57.6v61.6c0 15.2-5.6 29.6-15.2 41.6v80.8c0.8 8.8 4 60-32.8 102.4-32 36.8-84 55.2-154.4 55.2s-122.4-18.4-154.4-55.2c-37.6-41.6-34.4-92.8-33.6-102.4v-81.6c-9.6-11.2-15.2-26.4-15.2-41.6v-61.6c0-19.2 8.8-36.8 23.2-49.6 14.4-55.2 43.2-97.6 53.6-111.2v-50.4c0-14.4-8-27.2-20-34.4l-138.4-75.2c-4-2.4-8.8-4.8-12.8-8-90.4 81.6-147.2 200-147.2 331.2z" />
<glyph unicode="&#xe919;" glyph-name="search" d="M968.8-1.6l-269.6 280c68.8 68.8 111.2 164 111.2 268.8 0.8 210.4-170.4 380.8-380 380.8s-380.8-170.4-380.8-380.8 170.4-380.8 380.8-380.8c92 0 176.8 32.8 242.4 87.2l269.6-280.8c3.2-4 8-5.6 12.8-5.6s8.8 1.6 12.8 4.8c8 8 8 19.2 0.8 26.4zM430.4 203.2c-189.6 0-344 154.4-344 344s154.4 344 344 344 344-154.4 344-344-154.4-344-344-344z" />
<glyph unicode="&#xe91a;" glyph-name="share" d="M681.6 245.6c-8.8-8.8-16-17.6-22.4-28l-280.8 171.2c7.2 18.4 12 39.2 12 60 0 21.6-4 41.6-12 60l281.6 169.6c28.8-45.6 79.2-76 136.8-76 89.6 0 162.4 72.8 162.4 162.4s-72.8 163.2-162.4 163.2-162.4-72.8-162.4-162.4c0-20.8 4-40 11.2-57.6l-282.4-170.4c-28.8 44-79.2 73.6-136 73.6-89.6 0-162.4-72.8-162.4-162.4s72.8-162.4 162.4-162.4c56.8 0 107.2 29.6 136 73.6l281.6-171.2c-7.2-18.4-11.2-37.6-11.2-58.4 0-43.2 16.8-84 48-115.2 32-32 73.6-47.2 115.2-47.2s83.2 16 115.2 47.2c30.4 30.4 48 71.2 48 115.2s-16.8 84-48 115.2c-64 63.2-167.2 63.2-230.4 0zM796.8 895.2c72 0 130.4-58.4 130.4-130.4s-58.4-130.4-130.4-130.4-130.4 58.4-130.4 130.4 58.4 130.4 130.4 130.4zM227.2 318.4c-72 0-130.4 58.4-130.4 130.4s58.4 130.4 130.4 130.4 130.4-58.4 130.4-130.4-58.4-130.4-130.4-130.4zM888.8 38.4c-50.4-50.4-133.6-50.4-184 0-24.8 24.8-38.4 57.6-38.4 92s13.6 67.2 38.4 92c25.6 25.6 58.4 38.4 92 38.4s66.4-12.8 92-38.4c24.8-24.8 38.4-57.6 38.4-92s-13.6-67.2-38.4-92z" />
<glyph unicode="&#xe91b;" glyph-name="cancel" d="M61.6-2.4c6.4-6.4 14.4-9.6 23.2-9.6s16.8 3.2 23.2 9.6l404 404.8 404.8-404.8c6.4-6.4 14.4-9.6 23.2-9.6 8 0 16.8 3.2 23.2 9.6 12.8 12.8 12.8 33.6 0 45.6l-405.6 404.8 404.8 404.8c12.8 12.8 12.8 33.6 0 45.6s-33.6 12.8-45.6 0l-404.8-404.8-404.8 404.8c-12.8 12.8-33.6 12.8-45.6 0s-12.8-33.6 0-45.6l404.8-404.8-404.8-404.8c-12.8-12.8-12.8-32.8 0-45.6z" />
<glyph unicode="&#xe91c;" glyph-name="close-circle-fill" d="M512 940c-271.2 0-492-220.8-492-492s220.8-492 492-492 492 220.8 492 492-220.8 492-492 492zM700 233.6l-188 186.4-186.4-188-28 28 186.4 188-188 186.4 28 28 188-186.4 186.4 188 28-28-186.4-188 188-186.4-28-28z" />
<glyph unicode="&#xe91d;" glyph-name="close-circle" d="M512 928c-264.8 0-480-215.2-480-480s215.2-480 480-480 480 215.2 480 480-215.2 480-480 480zM512-1.6c-248 0-449.6 201.6-449.6 449.6s201.6 449.6 449.6 449.6c248 0 449.6-201.6 449.6-449.6s-201.6-449.6-449.6-449.6zM716.8 632.8l-21.6 21.6-183.2-184.8-185.6 183.2-20.8-20.8 184.8-184-183.2-184.8 20.8-21.6 184 184.8 184.8-183.2 21.6 20.8-185.6 184z" />
<glyph unicode="&#xe91e;" glyph-name="delete" d="M912 789.6h-200v32.8c0.8 58.4-47.2 105.6-104.8 105.6h-190.4c-58.4 0-105.6-47.2-105.6-105.6v-32.8h-199.2c-15.2 0-26.4-12-26.4-26.4s12-26.4 26.4-26.4h48v-626.4c0-78.4 64-142.4 142.4-142.4h419.2c78.4 0 142.4 64 142.4 142.4v626.4h48c15.2 0 26.4 12 26.4 26.4s-11.2 26.4-26.4 26.4zM364.8 822.4c0 28.8 23.2 52 52 52h189.6c28.8 0 52-23.2 52-52v-32.8h-293.6v32.8zM811.2 110.4c0-48.8-40-89.6-89.6-89.6h-419.2c-48.8 0-89.6 40-89.6 89.6v626.4h597.6l0.8-626.4zM512 116.8c15.2 0 26.4 12 26.4 26.4v471.2c0 15.2-12 26.4-26.4 26.4-15.2 0-26.4-12-26.4-26.4v-470.4c0-15.2 11.2-27.2 26.4-27.2zM338.4 146.4c15.2 0 26.4 12 26.4 26.4v412c0 15.2-12 26.4-26.4 26.4s-26.4-12-26.4-26.4v-412c-0.8-14.4 11.2-26.4 26.4-26.4zM685.6 146.4c15.2 0 26.4 12 26.4 26.4v412c0 15.2-12 26.4-26.4 26.4-15.2 0-26.4-12-26.4-26.4v-412c0-14.4 12-26.4 26.4-26.4z" />
<glyph unicode="&#xe91f;" glyph-name="shop" d="M714.4 410.4h-131.2c-36 0-64.8-28.8-64.8-64.8v-100c0-36 28.8-64.8 64.8-64.8h130.4c36 0 64.8 28.8 64.8 64.8v100c0 36-28.8 64.8-64 64.8zM732 245.6c0-9.6-8-17.6-17.6-17.6h-131.2c-9.6 0-17.6 8-17.6 17.6v100c0 9.6 8 17.6 17.6 17.6h130.4c9.6 0 17.6-8 17.6-17.6v-100zM992 592.8c0 4-0.8 8-3.2 11.2l-143.2 251.2c-4 7.2-12 12-20.8 12h-626.4c-8.8 0-16-4.8-20.8-12l-142.4-251.2c-2.4-3.2-3.2-7.2-3.2-11.2 0-56.8 33.6-104.8 82.4-126.4v-414.4c0-12.8 10.4-23.2 23.2-23.2h130.4c0 0 0 0 0.8 0h182.4c0 0 0 0 0.8 0h434.4c12.8 0 23.2 10.4 23.2 23.2v411.2c0 0.8 0 1.6 0 2.4 48 21.6 82.4 70.4 82.4 127.2zM212 820h600l112-196h-823.2l111.2 196zM715.2 576.8c-7.2-42.4-44.8-74.4-88.8-74.4-44.8 0-81.6 32-88.8 74.4h177.6zM487.2 576.8c-7.2-42.4-44.8-74.4-88.8-74.4s-81.6 32-89.6 74.4h178.4zM80.8 576.8h178.4c-7.2-42.4-44.8-74.4-89.6-74.4-44.8-0.8-81.6 32-88.8 74.4zM427.2 76h-135.2v254.4c0 18.4 15.2 33.6 33.6 33.6h68.8c18.4 0 33.6-15.2 33.6-33.6l-0.8-254.4zM862.4 76h-388v254.4c0 44-36 80.8-80.8 80.8h-68.8c-44 0-80.8-36-80.8-80.8v-254.4h-82.4v379.2c2.4 0 5.6 0 8 0 47.2 0 89.6 24 114.4 60.8 24.8-36.8 66.4-60.8 114.4-60.8s89.6 24 114.4 60.8c24.8-36.8 66.4-60.8 113.6-60.8s89.6 24 113.6 60.8c24.8-36.8 66.4-60.8 114.4-60.8 2.4 0 5.6 0 8 0v-379.2zM854.4 501.6c-44.8 0-81.6 32-88.8 74.4h178.4c-8-41.6-44.8-74.4-89.6-74.4z" />
<glyph unicode="&#xe920;" glyph-name="checkbox" d="M752-44h-480c-139.2 0-252 112.8-252 252v480c0 139.2 112.8 252 252 252h480c139.2 0 252-112.8 252-252v-480c0-139.2-112.8-252-252-252zM272 916c-125.6 0-228-102.4-228-228v-480c0-125.6 102.4-228 228-228h480c125.6 0 228 102.4 228 228v480c0 125.6-102.4 228-228 228h-480z" />
<glyph unicode="&#xe921;" glyph-name="checkbox-fill" d="M752 928h-480c-132 0-240-108-240-240v-480c0-132 108-240 240-240h480c132 0 240 108 240 240v480c0 132-108 240-240 240zM820 667.2l-394.4-459.2h-24l-197.6 229.6c-5.6 6.4-4.8 16.8 1.6 22.4s16.8 4.8 22.4-1.6l185.6-215.2 382.4 444.8c5.6 6.4 16 7.2 22.4 1.6s7.2-16 1.6-22.4z" />
<glyph unicode="&#xe922;" glyph-name="warning" d="M512 327.096c-11.040 0-20 8.944-20 20v246.896c0 11.040 8.96 20 20 20 11.064 0 20-8.96 20-20v-246.888c0-11.064-8.936-20.008-20-20.008zM543.824 228.312c0-17.624-14.344-31.88-31.76-31.88-17.68 0-31.88 14.264-31.88 31.88 0 17.464 14.2 31.76 31.88 31.76 17.416 0 31.76-14.296 31.76-31.76zM936.224 35.16h-848.488c-22.624 0-40.8 9.080-49.824 24.944-9.16 16.104-7.624 36.824 4.264 56.864l422.048 712.744c11.704 19.784 29.12 31.12 47.784 31.12s36.080-11.344 47.76-31.12l422.064-712.744c11.88-20.040 13.424-40.76 4.264-56.864-9.064-15.864-27.224-24.944-49.872-24.944zM512 820.832c-4.040 0-9.16-4.4-13.36-11.504l-422.064-712.744c-4.72-7.96-5.384-14.104-3.92-16.664 1.264-2.184 5.944-4.744 15.064-4.744h848.512c9.144 0 13.824 2.56 15.080 4.744 1.464 2.56 0.824 8.704-3.904 16.664l-422.064 712.768c-4.2 7.080-9.304 11.48-13.344 11.48z" />
<glyph unicode="&#xe923;" glyph-name="star-fill" d="M534.4 890.4l122.4-288.8 312.8-27.2c21.6-1.6 30.4-28.8 14.4-43.2l-237.6-204.8 71.2-305.6c4.8-21.6-18.4-37.6-36.8-26.4l-268.8 161.6-268.8-162.4c-18.4-11.2-41.6 5.6-36.8 26.4l71.2 305.6-236.8 206.4c-16.8 14.4-8 41.6 14.4 43.2l312.8 27.2 121.6 288c8 20 36.8 20 44.8 0z" />
<glyph unicode="&#xe924;" glyph-name="info" d="M492 188h40v380h-40v-380zM512 928c-264.8 0-480-215.2-480-480s215.2-480 480-480 480 215.2 480 480-215.2 480-480 480zM512 8c-242.4 0-440 197.6-440 440s197.6 440 440 440 440-197.6 440-440-197.6-440-440-440zM512 728c-16.8 0-40-24-40-40s23.2-40 40-40 40 23.2 40 40-23.2 40-40 40z" />
<glyph unicode="&#xe925;" glyph-name="car-category" d="M933.6 561.6l-2.4 2.4-34.4 32c28 6.4 58.4 30.4 58.4 54.4 0 28-38.4 38.4-72 38.4s-38.4-24-40-40l-84 82.4c-18.4 18.4-52 32-76 32h-340.8c-24 0-58.4-14.4-76-32l-86.4-84c0 16-4 40-40 40-34.4 0-72-10.4-72-38.4 0-24 30.4-48 58.4-54.4l-34.4-32-2.4-2.4c-33.6-28.8-57.6-87.2-57.6-128.8v-124c0-28 12-56 30.4-76v-48c0-28 24-50.4 52-50.4h61.6c28 0 52 22.4 52 50.4v12h567.2v-12c0-28 24-50.4 52-50.4h62.4c28 0 52 22.4 52 50.4v48c20 20 30.4 48 30.4 78.4v121.6c1.6 41.6-22.4 100-58.4 130.4zM298.4 693.6c12 10.4 34.4 18.4 44 18.4h340.8c10.4 0 32-8 44-18.4l114.4-110.4h-657.6l114.4 110.4zM72 451.2c0 30.4 24 54.4 52 54.4 30.4 0 124-56 124-86.4s-96-24-124-24c-29.6 0-52 25.6-52 56zM230.4 250.4h-80c-16 6.4-28 12-36 18.4-4 4-8 6.4-10.4 10.4s-4 6.4-6.4 10.4c-8 22.4 8 40 8 40h102.4l68-78.4h-45.6zM659.2 250.4h-292.8c-30.4 0-56 24-56 56h404.8c0-32-24-56-56-56zM673.6 342.4h-320.8c-34.4 0-60 42.4-60 92h440.8c0-49.6-26.4-92-60-92zM928 286.4c-2.4-4-4-6.4-6.4-10.4s-6.4-6.4-10.4-10.4c-4-4-20-12-36-18.4h-125.6l68 78.4h102.4c0 3.2 16-16.8 8-39.2v0zM901.6 395.2c-30.4 0-124-6.4-124 24s96 86.4 124 86.4c30.4 0 52-24 52-54.4s-21.6-56-52-56z" />
<glyph unicode="&#xe926;" glyph-name="pin-fill" d="M512 960c-204.49 0-370.854-166.364-370.854-370.852 0-253.776 331.878-626.334 346.008-642.070 13.272-14.782 36.444-14.756 49.692 0 14.13 15.736 346.008 388.294 346.008 642.070-0.004 204.488-166.366 370.852-370.854 370.852zM512 402.562c-102.884 0-186.584 83.702-186.584 186.586s83.702 186.584 186.584 186.584 186.582-83.702 186.582-186.586-83.7-186.584-186.582-186.584z" />
<glyph unicode="&#xe927;" glyph-name="page-view" d="M32 57.6h960v780h-960v-780zM62.4 88v600h900v-600h-900zM962.4 808v-90.4h-900v90.4h900zM122.4 777.6h60v-30.4h-60v30.4zM242.4 777.6h60v-30.4h-60v30.4zM362.4 777.6h60v-30.4h-60v30.4zM122.4 568h404.8v-30.4h-404.8v30.4zM122.4 448h404.8v-30.4h-404.8v30.4zM122.4 328h404.8v-30.4h-404.8v30.4zM587.2 297.6h315.2v270.4h-315.2v-270.4zM616.8 537.6h255.2v-209.6h-255.2v209.6z" />
<glyph unicode="&#xe928;" glyph-name="unblock-user" d="M727.2 111.2c-2.4 0-4 0.8-5.6 2.4l-102.4 105.6c-3.2 3.2-3.2 8 0 11.2s8 3.2 11.2 0l96.8-100 162.4 172.8c3.2 3.2 8 3.2 11.2 0s3.2-8 0-11.2l-168-179.2c-1.6-0.8-3.2-1.6-5.6-1.6 0 0 0 0 0 0zM423.2 592c-93.6 0-169.6 75.2-169.6 168s76 168 169.6 168c93.6 0 169.6-75.2 169.6-168s-76-168-169.6-168zM423.2 911.2c-84.8 0-153.6-68-153.6-152 0-83.2 68.8-152 153.6-152s153.6 68 153.6 152c0 84-68.8 152-153.6 152zM760-31.2c-132 0-240 108-240 240s108 240 240 240c132 0 240-108 240-240 0-132.8-108-240-240-240zM760 432.8c-123.2 0-224-100.8-224-224s100.8-224 224-224c123.2 0 224 100.8 224 224s-100.8 224-224 224zM540 128.8h-508c-4.8 0-8 3.2-8 8 0 105.6 41.6 204.8 116.8 279.2s176 115.2 282.4 115.2c0 0 0 0 0 0 96.8 0 191.2-35.2 264-99.2 2.4-1.6 3.2-4.8 2.4-7.2s-2.4-4.8-4.8-6.4c-88.8-32-148.8-116-148.8-209.6 0-21.6 4-44 12-68.8 0.8-2.4 0-4.8-0.8-7.2-1.6-2.4-4-4-7.2-4zM40 144.8h489.6c-6.4 22.4-9.6 43.2-9.6 63.2 0 96 58.4 182.4 146.4 220-68.8 56-154.4 86.4-243.2 86.4 0 0 0 0 0 0-102.4 0-198.4-39.2-271.2-110.4-70.4-68.8-109.6-160.8-112-259.2z" />
<glyph unicode="&#xe929;" glyph-name="block-user" d="M629.6 13.6c-1.6 0-3.2 0.8-4.8 1.6-4 2.4-4.8 7.2-2.4 11.2l260.8 373.6c2.4 4 7.2 4.8 11.2 2.4s4.8-7.2 2.4-11.2l-260-374.4c-1.6-2.4-4-3.2-7.2-3.2zM423.2 592c-93.6 0-169.6 75.2-169.6 168s76 168 169.6 168c93.6 0 169.6-75.2 169.6-168s-76-168-169.6-168zM423.2 911.2c-84.8 0-153.6-68-153.6-152 0-83.2 68.8-152 153.6-152s153.6 68 153.6 152c0 84-68.8 152-153.6 152zM760-31.2c-132 0-240 108-240 240s108 240 240 240c132 0 240-108 240-240 0-132.8-108-240-240-240zM760 432c-123.2 0-224-100.8-224-224s100.8-224 224-224c123.2 0 224 100.8 224 224 0 124-100.8 224-224 224zM540 128.8h-508c-4.8 0-8 3.2-8 8 0 105.6 41.6 204.8 116.8 279.2s176 115.2 282.4 115.2c0 0 0 0 0 0 96.8 0 190.4-35.2 264-99.2 2.4-1.6 3.2-4.8 2.4-7.2s-2.4-4.8-4.8-6.4c-88.8-32-148.8-116-148.8-209.6 0-21.6 4-44 12-68.8 0.8-2.4 0-4.8-0.8-7.2-1.6-2.4-4-4-7.2-4zM40 144.8h489.6c-6.4 22.4-9.6 43.2-9.6 63.2 0 96 58.4 182.4 146.4 220-68.8 56-154.4 86.4-243.2 86.4 0 0 0 0 0 0-102.4 0-198.4-39.2-271.2-110.4-70.4-68.8-109.6-160.8-112-259.2z" />
<glyph unicode="&#xe92a;" glyph-name="call" d="M697.6-24.8c-137.6 0-283.2 76-433.6 226.4-168 168-245.6 326.4-230.4 470.4 16.8 153.6 133.6 233.6 144 240 7.2 6.4 17.6 9.6 27.2 8.8 10.4-0.8 19.2-6.4 25.6-14.4l153.6-206.4c10.4-14.4 8.8-34.4-3.2-47.2l-58.4-58.4c0-20 63.2-151.2 130.4-217.6 64.8-64.8 184.8-120.8 204.8-120.8 0 0 0 0 0.8 0l88.8 75.2c13.6 12 34.4 11.2 48-0.8l184.8-169.6c7.2-6.4 11.2-16 12-25.6 0-9.6-3.2-19.2-10.4-25.6-7.2-9.6-96.8-122.4-257.6-134.4-8.8 0-17.6 0-26.4 0zM201.6 904.8c-4.8 0-9.6-1.6-13.6-5.6l-0.8-0.8c-0.8 0-120.8-79.2-136.8-228.8-15.2-138.4 60.8-292.8 225.6-457.6 156-156 306.4-230.4 447.2-220 156.8 11.2 244.8 127.2 245.6 128l0.8 0.8c4 4 5.6 8.8 5.6 14.4s-2.4 10.4-6.4 14.4l-184.8 169.6c-7.2 6.4-18.4 7.2-26.4 0.8l-90.4-76.8c-20-16.8-166.4 61.6-226.4 122.4-59.2 59.2-151.2 219.2-131.2 240l59.2 59.2c7.2 7.2 8 18.4 1.6 25.6l-152.8 206.4c-3.2 4.8-8 7.2-14.4 8 0 0-0.8 0-1.6 0zM860 531.2h-16v226.4c0 23.2-18.4 41.6-41.6 41.6h-217.6v16h216.8c32 0 58.4-26.4 58.4-58.4v-225.6z" />
<glyph unicode="&#xe92b;" glyph-name="unmute" d="M908.8 118.4l-68.8 114.4c-32 52.8-48.8 113.6-48.8 175.2v100c0.8 126.4-84 233.6-199.2 268v72c0 44-36 80-80 80s-80-36-80-80v-72c-115.2-34.4-200-141.6-200-268v-100c0-61.6-16.8-122.4-48.8-175.2l-68.8-114.4c-4-6.4-4-13.6 0-20 3.2-6.4 10.4-10.4 17.6-10.4h282.4c-1.6-6.4-2.4-13.6-2.4-20 0-55.2 44.8-100 100-100s100 44.8 100 100c0 6.4-0.8 13.6-2.4 20h282.4c7.2 0 13.6 4 17.6 10.4 3.2 5.6 3.2 13.6-0.8 20zM472 848c0 22.4 17.6 40 40 40s40-17.6 40-40v-63.2c-12.8 1.6-26.4 3.2-40 3.2s-27.2-0.8-40-3.2v63.2zM572 68c0-32.8-27.2-60-60-60s-60 27.2-60 60c0 6.4 1.6 13.6 3.2 20h112.8c2.4-6.4 4-13.6 4-20zM167.2 128l50.4 84c36 59.2 54.4 127.2 54.4 196v100c0 132 108 240 240 240s240-108 240-240v-100c0-68.8 18.4-136.8 54.4-195.2l50.4-84h-689.6z" />
<glyph unicode="&#xe92c;" glyph-name="mute" d="M168 128.8l49.6 83.2c36 59.2 54.4 127.2 54.4 196v100c0 49.6 15.2 96 41.6 134.4l-28.8 28c-33.6-45.6-52.8-101.6-52.8-162.4v-100c0-61.6-16.8-122.4-48.8-175.2l-68.8-114.4c-4-6.4-4-13.6 0-20 3.2-6.4 10.4-10.4 17.6-10.4h282.4c-1.6-6.4-2.4-13.6-2.4-20 0-55.2 44.8-100 100-100s100 44.8 100 100c0 6.4-0.8 13.6-2.4 20h267.2l-41.6 40.8h-667.2zM512 8c-32.8 0-60 27.2-60 60 0 6.4 1.6 13.6 3.2 20h112.8c2.4-6.4 4-13.6 4-20 0-32.8-27.2-60-60-60zM512 748c132 0 240-108 240-240v-100c0-68.8 18.4-136.8 54.4-195.2l16-26.4 88-86.4c2.4 5.6 2.4 12.8-1.6 18.4l-68.8 114.4c-32 52.8-48.8 113.6-48.8 175.2v100c0.8 126.4-84 233.6-199.2 268v72c0 44-36 80-80 80s-80-36-80-80v-72c-49.6-14.4-93.6-43.2-127.2-80.8l28.8-28c43.2 49.6 107.2 80.8 178.4 80.8zM472 848c0 22.4 17.6 40 40 40s40-17.6 40-40v-63.2c-12.8 1.6-26.4 3.2-40 3.2s-27.2-0.8-40-3.2v63.2zM1005.6 5.6l-901.6 886.4c-6.4 6.4-16.8 6.4-22.4 0-6.4-6.4-6.4-16.8 0-22.4l202.4-199.2 28.8-28 669.6-659.2c3.2-3.2 7.2-4.8 11.2-4.8s8 1.6 11.2 4.8c7.2 6.4 7.2 16.8 0.8 22.4z" />
<glyph unicode="&#xe92d;" glyph-name="send" d="M512 928c-265.096 0-480-214.904-480-480s214.904-480 480-480 480 214.904 480 480-214.904 480-480 480zM726.56 446.392c-6.248-6.248-16.376-6.248-22.624 0l-175.936 175.928v-380.616c0-8.832-7.168-16-16-16s-16 7.168-16 16v380.616l-175.928-175.928c-3.12-3.128-7.216-4.688-11.312-4.688s-8.184 1.56-11.312 4.688c-6.248 6.248-6.248 16.376 0 22.624l191.936 191.928c12.48 12.48 32.792 12.472 45.248 0l191.928-191.928c6.248-6.248 6.248-16.384 0-22.624z" />
<glyph unicode="&#xe92e;" glyph-name="shop-category" d="M32 537.6c0-56 37.6-102.4 90.4-116v-394.4h-60c-16 0-30.4-14.4-30.4-30.4s13.6-30.4 30.4-30.4h900c16 0 30.4 14.4 30.4 30.4s-14.4 30.4-30.4 30.4h-60v394.4c52 14.4 90.4 60 90.4 116v30.4h-960.8v-30.4zM632 417.6c66.4 0 120 54.4 120 120 0-56 38.4-102.4 90.4-116v-394.4h-450.4v390.4c66.4 0 120 54.4 120 120 0-65.6 54.4-120 120-120zM362.4 421.6v-394.4h-180v394.4c52 14.4 89.6 60 89.6 116 0-56 38.4-101.6 90.4-116zM872 837.6h-720l-120-240h960l-120 240zM286.4 772l-60-120c-2.4-5.6-8-8-14.4-8-2.4 0-4 0-5.6 2.4-8 4-10.4 12-5.6 20l60 120c4 8 12 10.4 20 6.4 5.6-4.8 9.6-14.4 5.6-20.8v0zM406.4 772l-60-120c-2.4-5.6-8-8-14.4-8-2.4 0-4 0-6.4 2.4-8 4-10.4 12-5.6 20l60 120c4 8 12 10.4 20 6.4 6.4-4.8 10.4-14.4 6.4-20.8v0zM528 657.6c0-8-6.4-16-16-16-8 0-16 6.4-16 16v120c0 8 6.4 16 16 16 8 0 16-6.4 16-16v-120zM700 644c-1.6-2.4-4-2.4-8-2.4-6.4 0-10.4 2.4-14.4 8l-66.4 120c-4 8-2.4 16 6.4 20 8 4 16 2.4 20-6.4l66.4-119.2c5.6-6.4 1.6-16-4-20v0zM818.4 644c-2.4-2.4-4-2.4-6.4-2.4-6.4 0-10.4 4-14.4 8l-60 120c-4 8 0 16 6.4 20 8 4 16 0 20-6.4l60-120c5.6-5.6 1.6-15.2-5.6-19.2zM288 204v70.4c-8 6.4-16 14.4-16 26.4 0 16 14.4 30.4 30.4 30.4s30.4-14.4 30.4-30.4c0-12-6.4-20-16-26.4v-70.4c8-6.4 16-14.4 16-26.4 0-16-14.4-30.4-30.4-30.4s-30.4 14.4-30.4 30.4c0 12 6.4 20 16 26.4zM152 897.6c0 16 14.4 30.4 30.4 30.4h660c16 0 30.4-13.6 30.4-30.4s-14.4-30.4-30.4-30.4h-660c-16 0.8-30.4 14.4-30.4 30.4zM558.4 257.6l-22.4 22.4 84 84 22.4-22.4-84-84zM558.4 172l-22.4 21.6 170.4 170.4 22.4-22.4-170.4-169.6zM706.4 277.6l21.6-21.6-84-84-22.4 22.4 84.8 83.2z" />
<glyph unicode="&#xe92f;" glyph-name="view-cart" d="M951.2 60h-882.4c-21.6 0-39.2 17.6-39.2 39.2v788.8c0 21.6 17.6 39.2 39.2 39.2h882.4c21.6 0 39.2-17.6 39.2-39.2v-788.8c0-21.6-17.6-39.2-39.2-39.2zM68.8 895.2c-4 0-7.2-3.2-7.2-7.2v-788.8c0-4 3.2-7.2 7.2-7.2h882.4c4 0 7.2 3.2 7.2 7.2v788.8c0 4-3.2 7.2-7.2 7.2h-882.4zM962.4-34.4h-896c-11.2 0-20 8.8-20 20s8.8 20 20 20h896c11.2 0 20-8.8 20-20s-8.8-20-20-20z" />
<glyph unicode="&#xe930;" glyph-name="view-thubnail" d="M294.4 632h-228.8c-18.4 0-33.6 15.2-33.6 33.6v228.8c0 18.4 15.2 33.6 33.6 33.6h229.6c18.4 0 33.6-15.2 33.6-33.6v-230.4c-1.6-17.6-16.8-32-34.4-32zM65.6 904c-5.6 0-9.6-4-9.6-9.6v-228.8c0-5.6 4-9.6 9.6-9.6h228.8c5.6 0 9.6 4.8 10.4 9.6v228.8c0 5.6-4 9.6-9.6 9.6h-229.6zM626.4 632h-228.8c-18.4 0-33.6 15.2-33.6 33.6v228.8c0 18.4 15.2 33.6 33.6 33.6h229.6c18.4 0 33.6-15.2 33.6-33.6v-230.4c-1.6-17.6-16.8-32-34.4-32zM397.6 904c-5.6 0-9.6-4-9.6-9.6v-228.8c0-5.6 4-9.6 9.6-9.6h228.8c5.6 0 9.6 4.8 10.4 9.6v228.8c0 5.6-4 9.6-9.6 9.6h-229.6zM958.4 632h-228.8c-18.4 0-33.6 15.2-33.6 33.6v228.8c0 18.4 15.2 33.6 33.6 33.6h229.6c18.4 0 33.6-15.2 33.6-33.6v-230.4c-1.6-17.6-16.8-32-34.4-32zM729.6 904c-5.6 0-9.6-4-9.6-9.6v-228.8c0-5.6 4-9.6 9.6-9.6h228.8c5.6 0 9.6 4.8 10.4 9.6v228.8c0 5.6-4 9.6-9.6 9.6h-229.6zM294.4 304h-228.8c-18.4 0-33.6 15.2-33.6 33.6v228.8c0 18.4 15.2 33.6 33.6 33.6h229.6c18.4 0 33.6-15.2 33.6-33.6v-230.4c-1.6-17.6-16.8-32-34.4-32zM65.6 576c-5.6 0-9.6-4-9.6-9.6v-228.8c0-5.6 4-9.6 9.6-9.6h228.8c5.6 0 9.6 4.8 10.4 9.6v228.8c0 5.6-4 9.6-9.6 9.6h-229.6zM626.4 304h-228.8c-18.4 0-33.6 15.2-33.6 33.6v228.8c0 18.4 15.2 33.6 33.6 33.6h229.6c18.4 0 33.6-15.2 33.6-33.6v-230.4c-1.6-17.6-16.8-32-34.4-32zM397.6 576c-5.6 0-9.6-4-9.6-9.6v-228.8c0-5.6 4-9.6 9.6-9.6h228.8c5.6 0 9.6 4.8 10.4 9.6v228.8c0 5.6-4 9.6-9.6 9.6h-229.6zM958.4 304h-228.8c-18.4 0-33.6 15.2-33.6 33.6v228.8c0 18.4 15.2 33.6 33.6 33.6h229.6c18.4 0 33.6-15.2 33.6-33.6v-230.4c-1.6-17.6-16.8-32-34.4-32zM729.6 576c-5.6 0-9.6-4-9.6-9.6v-228.8c0-5.6 4-9.6 9.6-9.6h228.8c5.6 0 9.6 4.8 10.4 9.6v228.8c0 5.6-4 9.6-9.6 9.6h-229.6zM294.4-32h-228.8c-18.4 0-33.6 15.2-33.6 33.6v228.8c0 18.4 15.2 33.6 33.6 33.6h229.6c18.4 0 33.6-15.2 33.6-33.6v-230.4c-1.6-17.6-16.8-32-34.4-32zM65.6 240c-5.6 0-9.6-4-9.6-9.6v-228.8c0-5.6 4-9.6 9.6-9.6h228.8c5.6 0 9.6 4.8 10.4 9.6v228.8c0 5.6-4 9.6-9.6 9.6h-229.6zM626.4-32h-228.8c-18.4 0-33.6 15.2-33.6 33.6v228.8c0 18.4 15.2 33.6 33.6 33.6h229.6c18.4 0 33.6-15.2 33.6-33.6v-230.4c-1.6-17.6-16.8-32-34.4-32zM397.6 240c-5.6 0-9.6-4-9.6-9.6v-228.8c0-5.6 4-9.6 9.6-9.6h228.8c5.6 0 9.6 4.8 10.4 9.6v228.8c0 5.6-4 9.6-9.6 9.6h-229.6zM958.4-32h-228.8c-18.4 0-33.6 15.2-33.6 33.6v228.8c0 18.4 15.2 33.6 33.6 33.6h229.6c18.4 0 33.6-15.2 33.6-33.6v-230.4c-1.6-17.6-16.8-32-34.4-32zM729.6 240c-5.6 0-9.6-4-9.6-9.6v-228.8c0-5.6 4-9.6 9.6-9.6h228.8c5.6 0 9.6 4.8 10.4 9.6v228.8c0 5.6-4 9.6-9.6 9.6h-229.6z" />
<glyph unicode="&#xe931;" glyph-name="category-fill" d="M988 243.2l-148.8 82.4-323.2-179.2c-2.4-1.6-5.6-1.6-8.8 0l-322.4 179.2-148.8-82.4c-5.6-3.2-5.6-9.6 0-12.8l472-261.6c2.4-1.6 5.6-1.6 8.8 0l472 261.6c4.8 3.2 4.8 9.6-0.8 12.8zM988 458.4l-142.4 79.2-329.6-183.2c-2.4-1.6-5.6-1.6-8.8 0l-328.8 182.4-142.4-78.4c-5.6-3.2-5.6-9.6 0-12.8l472-261.6c2.4-1.6 5.6-1.6 8.8 0l472 261.6c4.8 2.4 4.8 9.6-0.8 12.8zM516 391.2l472 261.6c5.6 3.2 5.6 9.6 0 12.8l-472 261.6c-2.4 1.6-5.6 1.6-8.8 0l-472-261.6c-5.6-3.2-5.6-9.6 0-12.8l142.4-79.2 329.6-182.4c3.2-1.6 6.4-1.6 8.8 0z" />
<glyph unicode="&#xe932;" glyph-name="category-strock" d="M512 328.8c-4 0-7.2 0.8-10.4 3.2l-460 279.2c-5.6 4-9.6 10.4-9.6 17.6s4 13.6 9.6 16.8l460 279.2c6.4 4 14.4 4 20.8 0l460-279.2c5.6-4 9.6-10.4 9.6-16.8 0-7.2-4-13.6-9.6-16.8l-460-280c-3.2-2.4-6.4-3.2-10.4-3.2zM90.4 628.8l421.6-256 421.6 256-421.6 256-421.6-256zM512 152c-4 0-7.2 0.8-10.4 3.2l-460 279.2c-5.6 4-9.6 10.4-9.6 17.6s4 13.6 9.6 16.8l145.6 88.8 20.8-34.4-117.6-71.2 421.6-256 421.6 256-117.6 71.2 20.8 34.4 145.6-88c5.6-3.2 9.6-10.4 9.6-16.8 0-7.2-4-13.6-9.6-16.8l-460-279.2c-3.2-4-6.4-4.8-10.4-4.8zM512-32c-4 0-7.2 0.8-10.4 3.2l-460 280c-5.6 3.2-9.6 9.6-9.6 16.8s4 13.6 9.6 16.8l145.6 88.8 20.8-34.4-117.6-71.2 421.6-256 421.6 256-117.6 71.2 20.8 34.4 145.6-88c5.6-3.2 9.6-10.4 9.6-16.8 0-7.2-4-13.6-9.6-16.8l-460-280c-3.2-3.2-6.4-4-10.4-4z" />
<glyph unicode="&#xe933;" glyph-name="profile-edit" d="M550.4-17.6c-5.6 0-10.4 2.4-14.4 5.6-5.6 5.6-7.2 14.4-4 22.4l75.2 166.4c0.8 2.4 2.4 4 4 5.6l253.6 253.6c4 4 8.8 5.6 14.4 5.6v0c5.6 0 10.4-2.4 14.4-5.6l92.8-92c8-8 8-20.8 0-28l-253.6-253.6c-1.6-1.6-4-3.2-6.4-4l-168-73.6c-2.4-2.4-4.8-2.4-8-2.4zM642.4 157.6l-52-116 116.8 51.2 236.8 236.8-64.8 64.8-236.8-236.8zM427.2 568c-96.8 0-175.2 77.6-175.2 172.8s78.4 172.8 175.2 172.8c96.8 0 175.2-77.6 175.2-172.8s-79.2-172.8-175.2-172.8zM427.2 873.6c-74.4 0-135.2-60-135.2-132.8 0-73.6 60.8-132.8 135.2-132.8s135.2 60 135.2 132.8-60.8 132.8-135.2 132.8zM464 124h-412c-11.2 0-20 8.8-20 20 0 215.2 176.8 390.4 395.2 390.4 96 0 188.8-34.4 261.6-97.6 8-7.2 8.8-20 1.6-28s-20-8.8-28-1.6c-65.6 56.8-148.8 88-235.2 88-188.8 0-344-146.4-354.4-330.4h391.2c11.2 0 20-8.8 20-20s-8.8-20.8-20-20.8z" />
<glyph unicode="&#xe934;" glyph-name="arrows_circle_right" d="M589.6 168.8c-4 0-8 1.6-11.2 4.8l-263.2 263.2c-6.4 6.4-6.4 16 0 22.4l263.2 263.2c6.4 6.4 16 6.4 22.4 0s6.4-16 0-22.4l-252-252 252-252c6.4-6.4 6.4-16 0-22.4-3.2-3.2-7.2-4.8-11.2-4.8zM512-32c-264.8 0-480 215.2-480 480s215.2 480 480 480 480-215.2 480-480-215.2-480-480-480zM512 896c-247.2 0-448-200.8-448-448s200.8-448 448-448c247.2 0 448 200.8 448 448s-200.8 448-448 448z" />
<glyph unicode="&#xe935;" glyph-name="sad" d="M512 928c-264.8 0-480-215.2-480-480s215.2-480 480-480c264.8 0 480 215.2 480 480s-215.2 480-480 480zM512 9.6c-241.6 0-438.4 196.8-438.4 438.4s196.8 438.4 438.4 438.4c241.6 0 438.4-196.8 438.4-438.4s-196.8-438.4-438.4-438.4zM408 531.2c0 34.4-28 62.4-62.4 62.4s-62.4-28-62.4-62.4 28-62.4 62.4-62.4 62.4 28 62.4 62.4zM324 531.2c0 11.2 9.6 20.8 20.8 20.8s20.8-9.6 20.8-20.8-9.6-20.8-20.8-20.8c-11.2 0-20.8 9.6-20.8 20.8zM679.2 594.4c-34.4 0-62.4-28-62.4-62.4s28-62.4 62.4-62.4 62.4 28 62.4 62.4-28 62.4-62.4 62.4zM679.2 510.4c-11.2 0-20.8 9.6-20.8 20.8s9.6 20.8 20.8 20.8c11.2 0 20.8-9.6 20.8-20.8s-9.6-20.8-20.8-20.8zM512 344c-77.6 0-152-32.8-203.2-90.4-8-8.8-7.2-21.6 1.6-29.6s21.6-7.2 29.6 1.6c43.2 48.8 106.4 76.8 172 76.8s128.8-28 172-76.8c4-4.8 9.6-7.2 15.2-7.2 4.8 0 9.6 1.6 13.6 5.6 8.8 8 9.6 20.8 1.6 29.6-50.4 56.8-124.8 90.4-202.4 90.4z" />
<glyph unicode="&#xe936;" glyph-name="smile" d="M713.6 338.4c-8.8 8-21.6 7.2-29.6-1.6-43.2-48.8-106.4-76.8-172-76.8s-128.8 28-172 76.8c-8 8.8-20.8 9.6-29.6 1.6s-9.6-20.8-1.6-29.6c51.2-57.6 125.6-90.4 203.2-90.4s152 32.8 203.2 90.4c8 8.8 7.2 21.6-1.6 29.6zM512 928c-264.8 0-480-215.2-480-480s215.2-480 480-480 480 215.2 480 480-215.2 480-480 480zM512 9.6c-241.6 0-438.4 196.8-438.4 438.4s196.8 438.4 438.4 438.4 438.4-196.8 438.4-438.4-196.8-438.4-438.4-438.4zM679.2 594.4c-57.6 0-104-47.2-104-104 0-11.2 9.6-20.8 20.8-20.8s20.8 9.6 20.8 20.8c0 34.4 28 62.4 62.4 62.4s62.4-28 62.4-62.4c0-11.2 9.6-20.8 20.8-20.8s20.8 9.6 20.8 20.8c0 56.8-46.4 104-104 104zM408 489.6c0-11.2 9.6-20.8 20.8-20.8s20.8 9.6 20.8 20.8c0 57.6-47.2 104-104 104s-104-47.2-104-104c0-11.2 9.6-20.8 20.8-20.8s20.8 9.6 20.8 20.8c0 34.4 28 62.4 62.4 62.4s62.4-28 62.4-62.4z" />
<glyph unicode="&#xe937;" glyph-name="confused" d="M512 928c-264.8 0-480-215.2-480-480s215.2-480 480-480 480 215.2 480 480-215.2 480-480 480zM512 9.6c-241.6 0-438.4 196.8-438.4 438.4s196.8 438.4 438.4 438.4 438.4-196.8 438.4-438.4-196.8-438.4-438.4-438.4zM344.8 468.8c34.4 0 62.4 28 62.4 62.4s-28 62.4-62.4 62.4-62.4-28-62.4-62.4 28-62.4 62.4-62.4zM344.8 552c11.2 0 20.8-9.6 20.8-20.8s-9.6-20.8-20.8-20.8c-11.2 0-20.8 9.6-20.8 20.8s9.6 20.8 20.8 20.8zM679.2 594.4c-34.4 0-62.4-28-62.4-62.4s28-62.4 62.4-62.4 62.4 28 62.4 62.4-28 62.4-62.4 62.4zM679.2 510.4c-11.2 0-20.8 9.6-20.8 20.8s9.6 20.8 20.8 20.8 20.8-9.6 20.8-20.8-9.6-20.8-20.8-20.8zM720.8 344h-417.6c-11.2 0-20.8-9.6-20.8-20.8s9.6-20.8 20.8-20.8h417.6c11.2 0 20.8 9.6 20.8 20.8s-9.6 20.8-20.8 20.8z" />
<glyph unicode="&#xe938;" glyph-name="chat-direct" d="M224 656h240c8.8 0 16 7.2 16 16s-7.2 16-16 16h-240c-8.8 0-16-7.2-16-16s7.2-16 16-16zM768 560h-544c-8.8 0-16-7.2-16-16s7.2-16 16-16h544c8.8 0 16 7.2 16 16s-7.2 16-16 16zM768 432h-544c-8.8 0-16-7.2-16-16s7.2-16 16-16h544c8.8 0 16 7.2 16 16s-7.2 16-16 16zM896 896h-768c-52 0-96-44-96-96v-528c0-52 44-96 96-96h128v-160c0-6.4 4-12.8 10.4-15.2 1.6-0.8 4-0.8 5.6-0.8 4.8 0 8.8 1.6 12 5.6l155.2 170.4h456.8c52 0 96 44 96 96v528c0 52-44 96-96 96zM960 272c0-34.4-29.6-64-64-64h-428.8l57.6 66.4c5.6 6.4 4.8 16.8-1.6 22.4s-16.8 4.8-22.4-1.6l-80-92.8-132.8-144.8v134.4c0 8.8-7.2 16-16 16h-144c-34.4 0-64 29.6-64 64v528c0 34.4 29.6 64 64 64h768c34.4 0 64-29.6 64-64v-528z" />
<glyph unicode="&#xe939;" glyph-name="add" d="M512-32c-264.8 0-480 215.2-480 480s215.2 480 480 480 480-215.2 480-480-215.2-480-480-480zM512 888c-242.4 0-440-197.6-440-440s197.6-440 440-440 440 197.6 440 440-197.6 440-440 440zM696.8 424.8h-369.6c-12.8 0-23.2 10.4-23.2 23.2s10.4 23.2 23.2 23.2h368.8c12.8 0 23.2-10.4 23.2-23.2 0.8-12.8-9.6-23.2-22.4-23.2zM512 240c-12.8 0-23.2 10.4-23.2 23.2v369.6c0 12.8 10.4 23.2 23.2 23.2s23.2-10.4 23.2-23.2v-368.8c0-13.6-10.4-24-23.2-24z" />
<glyph unicode="&#xe93a;" glyph-name="exit" d="M985.6 464l-172.8 166.4c-8 8-20.8 7.2-28-0.8-8-8-7.2-20.8 0.8-28l138.4-132.8h-320c-11.2 0-20-8.8-20-20s8.8-20 20-20h316.8c-137.6-134.4-138.4-136-140-141.6-4-10.4 1.6-21.6 12-25.6 2.4-0.8 4.8-1.6 7.2-1.6 6.4 0 12 3.2 16 8 9.6 10.4 106.4 104.8 171.2 166.4 4 4 6.4 8.8 6.4 14.4-1.6 5.6-4 11.2-8 15.2zM559.2-32h-396c-72 0-131.2 60.8-131.2 135.2v689.6c0 74.4 58.4 135.2 131.2 135.2h396c72 0 131.2-60.8 131.2-135.2v-148.8c0-11.2-8.8-20-20-20s-20 8.8-20 20v148.8c0 52.8-40.8 95.2-91.2 95.2h-396c-50.4 0-91.2-42.4-91.2-95.2v-690.4c0-52 40.8-95.2 91.2-95.2h396c50.4 0 91.2 42.4 91.2 95.2v170.4c0 11.2 8.8 20 20 20s20-8.8 20-20v-169.6c0-74.4-59.2-135.2-131.2-135.2z" />
<glyph unicode="&#xe93b;" glyph-name="setting" d="M976 432c8.8 0 16 7.2 16 16s-7.2 16-16 16h-48.8c-0.8 26.4-4.8 51.2-10.4 76l46.4 12.8c8.8 2.4 13.6 11.2 11.2 20s-11.2 13.6-19.2 11.2l-46.4-12.8c-0.8 1.6-0.8 3.2-1.6 5.6 0 0 0 0 0 0s0 0 0 0c-7.2 22.4-16.8 44-28 64.8l41.6 24c8 4.8 10.4 14.4 5.6 21.6-4.8 8-14.4 10.4-21.6 5.6l-42.4-24c-13.6 21.6-29.6 42.4-46.4 60.8l34.4 34.4c6.4 6.4 6.4 16 0 22.4s-16 6.4-22.4 0l-34.4-34.4c-18.4 17.6-39.2 32.8-60.8 46.4l24 42.4c4.8 8 1.6 17.6-5.6 21.6-8 4.8-17.6 1.6-21.6-5.6l-24-41.6c-22.4 12-46.4 21.6-71.2 29.6l12.8 46.4c2.4 8.8-2.4 17.6-11.2 19.2-8.8 2.4-17.6-2.4-19.2-11.2l-12.8-46.4c-24.8 5.6-50.4 8.8-76 10.4v48.8c0 8.8-7.2 16-16 16s-16-7.2-16-16v-48.8c-26.4-0.8-51.2-4.8-76-10.4l-12.8 46.4c-2.4 8.8-11.2 13.6-20 11.2s-13.6-11.2-11.2-19.2l12.8-46.4c-24.8-8-48-17.6-71.2-29.6l-24 41.6c-4.8 8-14.4 10.4-21.6 5.6-8-4.8-10.4-14.4-5.6-21.6l24-42.4c-21.6-13.6-42.4-29.6-60.8-46.4l-34.4 34.4c-6.4 6.4-16 6.4-22.4 0s-6.4-16 0-22.4l34.4-34.4c-17.6-18.4-32.8-39.2-46.4-60.8l-42.4 24c-8 4.8-17.6 1.6-21.6-5.6s-1.6-17.6 5.6-21.6l41.6-24c-11.2-20.8-20-42.4-28-64.8 0 0 0 0 0 0s0 0 0 0c-0.8-1.6-0.8-3.2-1.6-5.6l-46.4 12.8c-8.8 2.4-17.6-2.4-19.2-11.2-2.4-8.8 2.4-17.6 11.2-20l46.4-12.8c-5.6-24.8-8.8-50.4-9.6-76h-48.8c-8.8 0-16-7.2-16-16s7.2-16 16-16h48.8c0.8-26.4 4.8-51.2 10.4-76l-46.4-12.8c-8.8-2.4-13.6-11.2-11.2-19.2 0.8-7.2 7.2-12 14.4-12 1.6 0 2.4 0 4 0.8l46.4 12.8c8-24.8 17.6-48 29.6-71.2l-41.6-24c-8-4.8-10.4-14.4-5.6-21.6 3.2-4.8 8-8 13.6-8 2.4 0 5.6 0.8 8 2.4l42.4 24c13.6-21.6 29.6-42.4 46.4-60.8l-34.4-34.4c-6.4-6.4-6.4-16 0-22.4 3.2-3.2 7.2-4.8 11.2-4.8s8 1.6 11.2 4.8l34.4 34.4c12-11.2 24-20.8 36.8-30.4 0 0 0.8-0.8 0.8-0.8 0.8 0 0.8-0.8 1.6-0.8 7.2-4.8 14.4-9.6 21.6-14.4l-24-42.4c-4.8-8-1.6-17.6 5.6-21.6 2.4-1.6 5.6-2.4 8-2.4 5.6 0 11.2 3.2 13.6 8l24 41.6c22.4-12 46.4-21.6 71.2-29.6l-12.8-46.4c-2.4-8.8 2.4-17.6 11.2-19.2 1.6 0 2.4-0.8 4-0.8 7.2 0 13.6 4.8 15.2 12l12.8 46.4c24.8-5.6 50.4-8.8 76-10.4v-48.8c0-8.8 7.2-16 16-16s16 7.2 16 16v48.8c26.4 0.8 51.2 4.8 76 10.4l12.8-46.4c1.6-7.2 8-12 15.2-12 1.6 0 2.4 0 4 0.8 8.8 2.4 13.6 11.2 11.2 19.2l-12.8 46.4c24.8 8 48 17.6 71.2 29.6l24-41.6c3.2-4.8 8-8 13.6-8 2.4 0 5.6 0.8 8 2.4 8 4.8 10.4 14.4 5.6 21.6l-24 42.4c7.2 4.8 14.4 9.6 21.6 14.4 0.8 0 0.8 0.8 1.6 0.8 0 0 0.8 0.8 0.8 0.8 12.8 9.6 25.6 20 36.8 30.4l34.4-34.4c3.2-3.2 7.2-4.8 11.2-4.8s8 1.6 11.2 4.8c6.4 6.4 6.4 16 0 22.4l-34.4 34.4c17.6 18.4 32.8 39.2 46.4 60.8l42.4-24c2.4-1.6 5.6-2.4 8-2.4 5.6 0 11.2 3.2 13.6 8 4.8 8 1.6 17.6-5.6 21.6l-41.6 24c12 22.4 21.6 46.4 29.6 71.2l46.4-12.8c1.6 0 2.4-0.8 4-0.8 7.2 0 13.6 4.8 15.2 12 2.4 8.8-2.4 17.6-11.2 19.2l-46.4 12.8c5.6 24.8 8.8 50.4 10.4 76h49.6zM750.4 147.2l-122.4 168.8c36.8 32 60 79.2 60 132 0 13.6-1.6 26.4-4.8 39.2l198.4 64.8c9.6-32.8 14.4-67.2 14.4-103.2 0-122.4-56.8-231.2-145.6-301.6zM512 64c-78.4 0-151.2 24-212.8 64l122.4 168.8c26.4-16 56.8-24.8 89.6-24.8s63.2 9.6 89.6 24.8l124-168.8c-61.6-40-134.4-64-212.8-64zM128 448c0 36 4.8 70.4 14.4 103.2l198.4-64.8c-3.2-12-4.8-24.8-4.8-38.4 0-52.8 23.2-100 60-132l-122.4-168.8c-88.8 70.4-145.6 179.2-145.6 300.8zM496 832v-208c-65.6-5.6-120.8-48-145.6-105.6l-198.4 64c52.8 140.8 186.4 242.4 344 249.6zM872 581.6l-198.4-64.8c-24.8 57.6-80 100-145.6 105.6v209.6c157.6-7.2 291.2-108.8 344-250.4zM512 304c-79.2 0-144 64.8-144 144s64.8 144 144 144 144-64.8 144-144-64.8-144-144-144zM528 448c0-8.837-7.163-16-16-16s-16 7.163-16 16c0 8.837 7.163 16 16 16s16-7.163 16-16z" />
<glyph unicode="&#xe93c;" glyph-name="change" d="M108.8 509.6c4.8-1.6 10.4-1.6 16 0l156 71.2c9.6 4.8 14.4 16.8 9.6 26.4s-16 13.6-25.6 9.6l-109.6-49.6c52 156 197.6 260.8 364.8 260.8 175.2 0 328.8-116.8 372.8-284.8 2.4-10.4 13.6-16.8 24-14.4s16.8 13.6 14.4 24c-48.8 185.6-217.6 315.2-411.2 315.2-184.8 0-344.8-115.2-403.2-287.2l-45.6 114.4c-3.2 10.4-14.4 16-24.8 12.8s-16-14.4-12.8-24.8c0-0.8 0.8-1.6 0.8-2.4l64-160c1.6-5.6 5.6-9.6 10.4-11.2zM990.4 214.4c0 0 0 0.8 0 0.8l-64 160c-1.6 4.8-5.6 8.8-11.2 11.2-4.8 1.6-10.4 1.6-16 0l-156-71.2c-10.4-4-15.2-16-10.4-26.4 4-10.4 16-15.2 26.4-10.4 0 0 0.8 0 0.8 0.8l109.6 49.6c-52.8-156-198.4-260-364.8-260-175.2 0-328.8 116.8-372.8 284.8-2.4 10.4-13.6 16.8-24 14.4s-16.8-13.6-14.4-24c48.8-185.6 217.6-314.4 411.2-314.4 184.8 0 344.8 115.2 403.2 287.2l45.6-115.2c4-10.4 15.2-16 25.6-12 9.6 3.2 15.2 14.4 11.2 24.8z" />
<glyph unicode="&#xe93d;" glyph-name="headset" d="M898.4 484c-8 13.6-20.8 23.2-36 26.4v83.2c0 184-157.6 334.4-350.4 334.4s-351.2-150.4-351.2-334.4v-83.2c-15.2-4-28-13.6-36-27.2-5.6-11.2-8.8-24-8-36.8v-182.4c0-12.8 2.4-25.6 8-36.8 12-20.8 34.4-32 58.4-30.4h28c0.8-19.2 16.8-33.6 36-33.6h31.2c20 0 36 16 36 36v315.2c0 20-16 36-36 36h-32c-20 0-36-16-36-36v-1.6h-14.4v80c0 164.8 141.6 299.2 315.2 299.2s315.2-134.4 315.2-299.2v-80h-14.4v1.6c0 20-16 36-36 36h-29.6c-20 0-36-16-36-36v-316c0.8-17.6 14.4-32.8 32-34.4-3.2-22.4-13.6-44-28.8-60.8-28-31.2-73.6-48.8-135.2-53.6v8c-0.8 20.8-18.4 36.8-39.2 36h-76.8c-20.8 0.8-37.6-15.2-39.2-36v-53.6c0.8-20.8 18.4-36.8 39.2-36h77.6c20.8-0.8 37.6 15.2 39.2 36v9.6c72 4.8 127.2 26.4 161.6 64.8 21.6 24 35.2 53.6 39.2 85.6 18.4 0.8 32.8 15.2 33.6 33.6h28c24-2.4 46.4 9.6 58.4 30.4 5.6 11.2 8.8 24 8 36.8v181.6c0 12.8-3.2 26.4-9.6 37.6zM247.2 232v246.4c0 2.4 0 4 0 6.4v29.6l29.6 0.8v-315.2h-29.6v32zM211.2 479.2v-245.6h-28c-20.8 0-25.6 8.8-27.2 12-3.2 6.4-4 12.8-4 19.2v181.6c0 6.4 0.8 13.6 4 20 1.6 3.2 6.4 12 27.2 12l28 0.8zM543.2 31.2v-24.8c-0.8-1.6-2.4-2.4-4-2.4h-77.6c-0.8 0-1.6 0-3.2 0v52c0.8 0.8 2.4 1.6 3.2 0.8h77.6c1.6 0 3.2 0 3.2 0l0.8-25.6zM776.8 478.4v-278.4h-31.2v314.4h30.4l0.8-36zM867.2 244.8c-1.6-3.2-6.4-12-27.2-12h-27.2v244.8h27.2c20.8 0 25.6-8.8 27.2-12 3.2-6.4 4-12.8 4-19.2v-182.4c0-6.4-1.6-13.6-4-19.2z" />
<glyph unicode="&#xe93e;" d="M992 448c0-265.097-214.903-480-480-480s-480 214.903-480 480c0 265.097 214.903 480 480 480s480-214.903 480-480z" />
<glyph unicode="&#xe93f;" glyph-name="download-strok" d="M512-52c-276 0-500 224-500 500s224 500 500 500c276 0 500-224 500-500s-224-500-500-500zM512 908c-253.6 0-460-206.4-460-460s206.4-460 460-460c253.6 0 460 206.4 460 460s-206.4 460-460 460zM672 398.4c-8.8 7.2-20.8 5.6-28-2.4l-112-133.6v413.6c0 11.2-8.8 20-20 20s-20-8.8-20-20v-413.6l-112 133.6c-7.2 8.8-20 9.6-28 2.4-8.8-7.2-9.6-20-2.4-28l128.8-154.4c8-10.4 20-16 33.6-16 0 0 0 0 0 0 12.8 0 25.6 5.6 32.8 15.2l129.6 155.2c7.2 8.8 6.4 20.8-2.4 28z" />
<glyph unicode="&#xe940;" glyph-name="time-load-chat" d="M512-32c-264.8 0-480 215.2-480 480s215.2 480 480 480 480-215.2 480-480-215.2-480-480-480zM512 864c-229.6 0-416-186.4-416-416s186.4-416 416-416 416 186.4 416 416-186.4 416-416 416zM769.6 408h-297.6v346.4c0 22.4 17.6 40 40 40s40-17.6 40-40v-266.4h217.6c22.4 0 40-17.6 40-40s-17.6-40-40-40z" />
<glyph unicode="&#xe941;" d="M512 928c-264.8 0-480-215.2-480-480s215.2-480 480-480 480 215.2 480 480-215.2 480-480 480zM629.6 432.8l-159.2-149.6c-13.6-12.8-35.2-3.2-35.2 15.2v299.2c0 18.4 21.6 28 35.2 15.2l159.2-149.6c8.8-8 8.8-22.4 0-30.4z" />
<glyph unicode="&#xe942;" d="M512 928c-264.8 0-480-215.2-480-480s215.2-480 480-480 480 215.2 480 480-215.2 480-480 480zM476.8 308c0-8.8-7.2-16-16-16h-36c-8.8 0-16 7.2-16 16v280c0 8.8 7.2 16 16 16h36c8.8 0 16-7.2 16-16v-280zM615.2 308c0-8.8-7.2-16-16-16h-36c-8.8 0-16 7.2-16 16v280c0 8.8 7.2 16 16 16h36c8.8 0 16-7.2 16-16v-280z" />
<glyph unicode="&#xe943;" d="M460.8 604h-36c-8.8 0-16-7.2-16-16v-280c0-8.8 7.2-16 16-16h36c8.8 0 16 7.2 16 16v280c0 8.8-7.2 16-16 16z" />
<glyph unicode="&#xe944;" d="M599.2 604h-36c-8.8 0-16-7.2-16-16v-280c0-8.8 7.2-16 16-16h36c8.8 0 16 7.2 16 16v280c0 8.8-7.2 16-16 16z" />
<glyph unicode="&#xe945;" glyph-name="arrow_down_direct" d="M862.4 358.4c-12.8 12.8-32.8 12.8-45.6 0l-272.8-272.8v802.4c0 17.6-14.4 32-32 32s-32-14.4-32-32v-802.4l-273.6 272.8c-12.8 12.8-32.8 12.8-45.6 0s-12.8-32.8 0-45.6l328-328c7.2-5.6 15.2-8.8 23.2-8.8s16 3.2 22.4 9.6l328 328c12.8 12 12.8 32 0 44.8z" />
<glyph unicode="&#xe946;" glyph-name="replay" d="M969.6 734.4l-217.6 158.4c-16 11.2-37.6 8-48.8-8s-8-37.6 8-48.8l164.8-119.2h-464c-209.6-0.8-380-161.6-380-360s170.4-360 380-360h152c19.2 0 35.2 16 35.2 35.2s-16 35.2-35.2 35.2h-152c-171.2 0-310.4 129.6-310.4 289.6s139.2 289.6 310.4 289.6h465.6l-166.4-121.6c-16-11.2-19.2-33.6-8-48.8 7.2-9.6 17.6-14.4 28.8-14.4 7.2 0 14.4 2.4 20.8 6.4l213.6 154.4 4 3.2c14.4 14.4 22.4 33.6 22.4 53.6-0.8 21.6-8.8 40.8-23.2 55.2z" />
<glyph unicode="&#xe947;" glyph-name="copy" d="M649.6 760h-446.4c-41.6 0-76-34.4-76-76v-640c0-41.6 34.4-76 76-76h446.4c41.6 0 76 34.4 76 76v640c0 42.4-34.4 76-76 76zM672.8 44c0-12.8-10.4-23.2-23.2-23.2h-446.4c-12.8 0-23.2 10.4-23.2 23.2v640c0 12.8 10.4 23.2 23.2 23.2h446.4c12.8 0 23.2-10.4 23.2-23.2v-640zM820.8 928h-446.4c-41.6 0-76-34.4-76-76 0-14.4 12-26.4 26.4-26.4s26.4 12 26.4 26.4c0 12.8 10.4 23.2 23.2 23.2h446.4c12.8 0 23.2-10.4 23.2-23.2v-640c0-12.8-10.4-23.2-23.2-23.2-14.4 0-26.4-12-26.4-26.4s12-26.4 26.4-26.4c41.6 0 76 34.4 76 76v640c-0.8 41.6-34.4 76-76 76z" />
<glyph unicode="&#xe948;" glyph-name="path-finder" d="M986.4 462.4l-460 460c-8 8-20.8 8-28.8 0l-460-460c-8-8-8-20.8 0-28.8l460-460c4-4 8.8-5.6 14.4-5.6s10.4 1.6 14.4 5.6l458.4 458.4c8 8 8 20.8 0 28.8s-20.8 8-28.8 0l-444-444-431.2 431.2 431.2 431.2 445.6-445.6c8-8 20.8-8 28.8 0 7.2 8 7.2 20.8 0 28.8zM580.8 429.6c4-4 8.8-5.6 14.4-5.6 4.8 0 10.4 1.6 14.4 5.6l75.2 75.2c8 8 8 20.8 0 28.8l-75.2 75.2c-8 8-20.8 8-28.8 0s-8-20.8 0-28.8l40.8-40.8h-232c-11.2 0-20-8.8-20-20v-266.4c0-11.2 8.8-20 20-20s20 8.8 20 20v246.4h212l-40.8-40.8c-7.2-8-7.2-20.8 0-28.8z" />
<glyph unicode="&#xe949;" glyph-name="target" d="M976 464h-32.8c-8 225.6-190.4 407.2-415.2 416v32c0 8.8-7.2 16-16 16s-16-7.2-16-16v-32.8c-225.6-8-407.2-190.4-416-416h-32c-8.8 0-16-7.2-16-16s7.2-16 16-16h32.8c8-225.6 190.4-407.2 416-415.2v-32.8c0-8.8 7.2-16 16-16s16 7.2 16 16v32.8c225.6 8 407.2 190.4 415.2 415.2h32.8c8.8 0 16 7.2 16 16-0.8 9.6-8 16.8-16.8 16.8zM528 48.8v31.2c0 8.8-7.2 16-16 16s-16-7.2-16-16v-31.2c-208 8-375.2 176-384 383.2h32c8.8 0 16 7.2 16 16s-7.2 16-16 16h-31.2c8 208 176 375.2 384 384v-32c0-8.8 7.2-16 16-16s16 7.2 16 16v31.2c208-8 375.2-176 383.2-384h-32c-8.8 0-16-7.2-16-16s7.2-16 16-16h31.2c-8-207.2-175.2-374.4-383.2-382.4zM704 464h-81.6c-6.4 48.8-45.6 88-94.4 94.4v81.6c0 8.8-7.2 16-16 16s-16-7.2-16-16v-81.6c-48.8-6.4-88-45.6-94.4-94.4h-81.6c-8.8 0-16-7.2-16-16s7.2-16 16-16h81.6c6.4-48.8 45.6-88 94.4-94.4v-81.6c0-8.8 7.2-16 16-16s16 7.2 16 16v81.6c48.8 6.4 88 45.6 94.4 94.4h81.6c8.8 0 16 7.2 16 16s-7.2 16-16 16zM512 368c-44 0-80 36-80 80s36 80 80 80 80-36 80-80-36-80-80-80z" />
<glyph unicode="&#xe94a;" glyph-name="radio-button-stroke" d="M512-36c-267.2 0-484 216.8-484 484s216.8 484 484 484c267.2 0 484-216.8 484-484s-216.8-484-484-484zM512 908c-253.6 0-460-206.4-460-460s206.4-460 460-460c253.6 0 460 206.4 460 460s-206.4 460-460 460z" />
<glyph unicode="&#xe94b;" glyph-name="radio-button-fill" d="M512-32c-264.8 0-480 215.2-480 480s215.2 480 480 480 480-215.2 480-480-215.2-480-480-480zM512 896c-247.2 0-448-200.8-448-448s200.8-448 448-448c247.2 0 448 200.8 448 448s-200.8 448-448 448zM832 448c0-176.731-143.269-320-320-320s-320 143.269-320 320c0 176.731 143.269 320 320 320s320-143.269 320-320z" />
<glyph unicode="&#xe94c;" glyph-name="file" d="M712 576h-400c-8.8 0-16-7.2-16-16s7.2-16 16-16h400c8.8 0 16 7.2 16 16s-7.2 16-16 16zM312 672h160c8.8 0 16 7.2 16 16s-7.2 16-16 16h-160c-8.8 0-16-7.2-16-16s7.2-16 16-16zM712 448h-400c-8.8 0-16-7.2-16-16s7.2-16 16-16h400c8.8 0 16 7.2 16 16s-7.2 16-16 16zM712 320h-400c-8.8 0-16-7.2-16-16s7.2-16 16-16h400c8.8 0 16 7.2 16 16s-7.2 16-16 16zM712 192h-400c-8.8 0-16-7.2-16-16s7.2-16 16-16h400c8.8 0 16 7.2 16 16s-7.2 16-16 16zM654.4 928h-518.4v-960h752v726.4l-233.6 233.6zM664 873.6l169.6-169.6h-169.6v169.6zM168 0v896h464v-224h224v-672h-688z" />
<glyph unicode="&#xe94d;" glyph-name="picture" d="M975.2 828.8h-926.4c-8.8 0-16.8-7.2-16.8-16.8v-728c0-8.8 7.2-16.8 16.8-16.8h927.2c8.8 0 16.8 7.2 16.8 16.8v728c-0.8 9.6-8 16.8-17.6 16.8zM959.2 100.8h-894.4v694.4h893.6v-694.4zM296.8 462.4c51.2 0 92 41.6 92 92 0 51.2-41.6 92-92 92s-92-41.6-92-92c0-50.4 40.8-92 92-92zM296.8 613.6c32.8 0 59.2-26.4 59.2-59.2s-26.4-59.2-59.2-59.2-59.2 26.4-59.2 59.2 26.4 59.2 59.2 59.2zM148 166.4c4 0 8 1.6 11.2 4l270.4 237.6 170.4-170.4c6.4-6.4 16.8-6.4 23.2 0s6.4 16.8 0 23.2l-79.2 79.2 152 166.4 186.4-171.2c6.4-6.4 17.6-5.6 23.2 0.8 6.4 6.4 5.6 17.6-0.8 23.2l-199.2 184c-3.2 3.2-7.2 4.8-12 4-4 0-8.8-2.4-11.2-5.6l-162.4-177.6-78.4 78.4c-6.4 6.4-16 6.4-22.4 0.8l-281.6-248c-7.2-6.4-7.2-16.8-1.6-23.2 2.4-3.2 7.2-5.6 12-5.6z" />
<glyph unicode="&#xe94e;" glyph-name="play-movie-stroke" d="M512-44c-271.2 0-492 220.8-492 492s220.8 492 492 492 492-220.8 492-492-220.8-492-492-492zM512 916c-258.4 0-468-209.6-468-468s209.6-468 468-468 468 209.6 468 468-209.6 468-468 468zM629.6 432.8l-159.2-149.6c-13.6-12.8-35.2-3.2-35.2 15.2v299.2c0 18.4 21.6 28 35.2 15.2l159.2-149.6c8.8-8 8.8-22.4 0-30.4z" />
<glyph unicode="&#xe94f;" glyph-name="edit" d="M918.4 326.4c-13.6 0-24-10.4-24-24v-212c0-39.2-32-72-72-72h-671.2c-39.2 0-72 32-72 72v622.4c0 39.2 32 72 72 72h212c13.6 0 24 10.4 24 24 0 12.8-10.4 24-24 24h-212c-65.6 0-119.2-53.6-119.2-120v-623.2c0-65.6 53.6-119.2 119.2-119.2h671.2c65.6 0 119.2 53.6 119.2 119.2v212.8c0 12.8-10.4 24-23.2 24zM932.8 894.4c-42.4 42.4-110.4 42.4-152 0l-427.2-427.2c-3.2-3.2-4.8-6.4-6.4-10.4l-56-202.4c-2.4-8 0-16.8 6.4-23.2s15.2-8.8 23.2-6.4l202.4 56c4 0.8 8 3.2 10.4 6.4l426.4 426.4c41.6 42.4 41.6 110.4 0 152l-27.2 28.8zM405.6 452l348.8 348.8 112.8-112.8-348.8-348.8-112.8 112.8zM383.2 407.2l89.6-89.6-124.8-34.4 35.2 124zM926.4 748l-25.6-25.6-112 112.8 25.6 25.6c23.2 23.2 60.8 23.2 84.8 0l28-28c23.2-24 23.2-61.6-0.8-84.8z" />
<glyph unicode="&#xe950;" glyph-name="more" d="M170.4 586.4c-76.8 0-138.4-61.6-138.4-138.4s61.6-138.4 138.4-138.4c76.8 0 138.4 62.4 138.4 138.4s-61.6 138.4-138.4 138.4v0zM512 586.4c-76.8 0-138.4-62.4-138.4-138.4s61.6-138.4 138.4-138.4 138.4 61.6 138.4 138.4-61.6 138.4-138.4 138.4v0zM853.6 586.4c-76.8 0-138.4-62.4-138.4-138.4s61.6-138.4 138.4-138.4 138.4 61.6 138.4 138.4-61.6 138.4-138.4 138.4v0z" />
<glyph unicode="&#xe951;" glyph-name="plus" d="M992 464h-464v464c0 8.8-7.2 16-16 16s-16-7.2-16-16v-464h-464c-8.8 0-16-7.2-16-16s7.2-16 16-16h464v-464c0-8.8 7.2-16 16-16s16 7.2 16 16v464h464c8.8 0 16 7.2 16 16s-7.2 16-16 16z" />
<glyph unicode="&#xe952;" glyph-name="camera" d="M915.2 680h-136l-64 160h-406.4l-64-160h-20.8v80h-96v-80h-19.2c-42.4 0-76.8-34.4-76.8-76.8v-469.6c0-42.4 34.4-77.6 77.6-77.6h805.6c42.4 0 77.6 34.4 77.6 77.6v469.6c-0.8 42.4-35.2 76.8-77.6 76.8zM160 728h32v-48h-32v48zM960 133.6c0-24.8-20-45.6-45.6-45.6h-804.8c-24.8 0-45.6 20-45.6 45.6v469.6c0 24.8 20 44.8 44.8 44.8h158.4l64 160h362.4l64-160h158.4c24.8 0 44.8-20 44.8-44.8-0.8 0-0.8-469.6-0.8-469.6zM512 612c-112.8 0-204-91.2-204-204s91.2-204 204-204 204 91.2 204 204-91.2 204-204 204zM512 237.6c-93.6 0-170.4 76-170.4 170.4s76.8 169.6 170.4 169.6 170.4-76 170.4-169.6-76.8-170.4-170.4-170.4zM864 616c-35.2 0-64-28.8-64-64s28.8-64 64-64 64 28.8 64 64-28.8 64-64 64zM864 520c-17.6 0-32 14.4-32 32s14.4 32 32 32 32-14.4 32-32-14.4-32-32-32z" />
<glyph unicode="&#xe953;" glyph-name="pic-gallery" d="M976 730.4h-74.4v78.4c0 19.2-16 35.2-35.2 35.2h-793.6c-22.4 0-40.8-18.4-40.8-40.8v-586.4c0-24 19.2-43.2 43.2-43.2h60v-107.2c0-8 6.4-15.2 15.2-15.2h826.4c8 0 15.2 6.4 15.2 15.2v649.6c-0.8 8-7.2 14.4-16 14.4zM135.2 716v-506.4h-60c-4 0-8 3.2-8 8v586.4c0 2.4 2.4 4.8 4.8 4.8h794.4v-77.6h-716c-8-0.8-15.2-7.2-15.2-15.2zM180 81.6c-8.8 0-15.2 7.2-15.2 15.2v588.8c0 8.8 7.2 15.2 15.2 15.2h765.6c8.8 0 15.2-7.2 15.2-15.2v-603.2h-780.8zM371.2 404c45.6 0 82.4 36.8 82.4 82.4s-36.8 82.4-82.4 82.4c-44.8 0-82.4-36.8-82.4-82.4s36.8-82.4 82.4-82.4zM371.2 539.2c29.6 0 52.8-23.2 52.8-52.8s-23.2-52.8-52.8-52.8c-29.6 0-52.8 23.2-52.8 52.8 0 28.8 24 52.8 52.8 52.8zM736 476c-3.2 3.2-6.4 4-10.4 3.2-3.2 0-8-2.4-9.6-4.8l-145.6-157.6-69.6 69.6c-5.6 5.6-14.4 5.6-20 0.8l-251.2-221.6c-6.4-5.6-6.4-15.2-1.6-20.8 2.4-3.2 6.4-4.8 10.4-4.8 3.2 0 7.2 1.6 9.6 3.2l240.8 212 152-152c5.6-5.6 15.2-5.6 20.8 0s5.6 15.2 0 20.8l-69.6 71.2 135.2 148 166.4-152.8c5.6-5.6 16-4.8 20.8 0.8 5.6 5.6 4.8 16-0.8 20.8l-177.6 164z" />
<glyph unicode="&#xe954;" glyph-name="address" d="M415.2 67.2v-97.6l-23.2 19.2c-4 3.2-90.4 72.8-177.6 173.6-120.8 139.2-182.4 263.2-182.4 370.4v10.4c0 212 172 384 383.2 384s383.2-172 383.2-383.2v-10.4c0-8.8-0.8-18.4-1.6-27.2l-75.2 68.8c-15.2 156-147.2 278.4-307.2 278.4-170.4 0-308.8-138.4-308.8-308.8v-10.4c1.6-182.4 234.4-400.8 309.6-467.2zM645.6 120.8h112v112h-112v-112zM415.2 702.4c88 0 159.2-71.2 159.2-159.2s-71.2-159.2-159.2-159.2-158.4 72-158.4 159.2 71.2 159.2 158.4 159.2zM415.2 627.2c-46.4 0-84-37.6-84-84s37.6-84 84-84c46.4 0 84 37.6 84 84 0.8 46.4-37.6 84-84 84zM941.6 171.2l-20.8 19.2v-120c0-56-45.6-101.6-101.6-101.6h-236.8c-56 0-101.6 45.6-101.6 101.6v120l-20.8-19.2-50.4 55.2 291.2 265.6 291.2-265.6-50.4-55.2zM845.6 259.2l-144.8 132-144.8-132v-188c0-14.4 12-26.4 26.4-26.4h236.8c14.4 0 26.4 12 26.4 26.4v188z" />
<glyph unicode="&#xe955;" glyph-name="pause" d="M715.2 928h-110.4c-27.2 0-49.6-22.4-49.6-49.6v-861.6c0-27.2 22.4-49.6 49.6-49.6h110.4c27.2 0 49.6 22.4 49.6 49.6v861.6c0 27.2-22.4 49.6-49.6 49.6zM419.2 928h-110.4c-27.2 0-49.6-22.4-49.6-49.6v-861.6c0-27.2 22.4-49.6 49.6-49.6h110.4c27.2 0 49.6 22.4 49.6 49.6v861.6c0 27.2-22.4 49.6-49.6 49.6z" />
<glyph unicode="&#xe956;" glyph-name="play" d="M328 911.2c-38.4 36-99.2 8.8-99.2-42.4v-841.6c0-52 60.8-78.4 99.2-42.4l448 420.8c24.8 22.4 24.8 63.2 0 85.6l-448 420z" />
<glyph unicode="&#xe957;" glyph-name="sport-service" d="M544 768c8 11.2 8 35.2 6.4 57.6 0 1.6 0 1.6 0 3.2-12.8 1.6-24 1.6-36.8 1.6-48 0-92.8-8-134.4-24 30.4-14.4 76.8-38.4 128-75.2 16 12.8 28.8 27.2 36.8 36.8zM737.6 550.4c-19.2-1.6-35.2-4.8-48-9.6 65.6-113.6 89.6-256 96-360 64 65.6 105.6 153.6 108.8 252.8-44.8 52.8-102.4 121.6-156.8 116.8zM352 648c46.4 9.6 88 32 123.2 56-72 49.6-131.2 75.2-142.4 80-73.6-40-132.8-104-168-180.8 44.8 17.6 92.8 27.2 140.8 35.2 14.4 3.2 30.4 6.4 46.4 9.6zM616 636.8c4.8-4.8 8-8 12.8-12.8 14.4-16 28.8-32 40-51.2 17.6 6.4 40 11.2 64 14.4 59.2 6.4 113.6-40 158.4-92.8-9.6 78.4-43.2 150.4-94.4 208-27.2-3.2-59.2-9.6-89.6-17.6-20.8-6.4-52.8-24-91.2-48zM564.8 438.4c16 52.8 33.6 91.2 68.8 116.8-11.2 14.4-22.4 28.8-33.6 41.6-6.4 6.4-11.2 11.2-17.6 17.6-140.8-96-334.4-272-352-425.6 59.2-64 139.2-108.8 228.8-120 33.6 65.6 64 198.4 81.6 278.4 9.6 38.4 17.6 70.4 24 91.2zM404.8 523.2c49.6 44.8 100.8 86.4 148.8 118.4-16 14.4-32 27.2-48 38.4-40-30.4-91.2-59.2-147.2-70.4-16-3.2-32-6.4-48-9.6-60.8-11.2-118.4-22.4-166.4-49.6-9.6-33.6-14.4-68.8-14.4-104 0-81.6 25.6-156.8 68.8-217.6 28.8 110.4 124.8 219.2 206.4 294.4zM587.2 664c44.8 28.8 84.8 49.6 110.4 56 22.4 6.4 44.8 11.2 67.2 16-49.6 43.2-108.8 73.6-174.4 86.4 1.6-27.2 1.6-56-14.4-76.8-8-9.6-20.8-24-36.8-38.4 14.4-14.4 30.4-28.8 48-43.2zM601.6 428.8c-6.4-20.8-12.8-52.8-22.4-89.6-25.6-110.4-49.6-209.6-78.4-272 4.8 0 8 0 12.8 0 89.6 0 171.2 30.4 235.2 81.6-3.2 107.2-28.8 260.8-94.4 374.4-25.6-19.2-38.4-48-52.8-94.4z" />
<glyph unicode="&#xe958;" glyph-name="training-service" d="M747.2 292.8c-6.4 12.8-19.2 22.4-32 27.2l-88 40-41.6 35.2-67.2-67.2 28.8-195.2c0 0 0-1.6 0-1.6l-30.4-41.6c0 0-1.6-1.6-1.6-1.6s-1.6 0-1.6 1.6l-33.6 41.6c0 0 0 1.6 0 1.6l28.8 195.2-67.2 67.2-41.6-35.2-89.6-40c-12.8-4.8-25.6-12.8-32-27.2 0 0-96-227.2-43.2-227.2h556.8c51.2-1.6-44.8 227.2-44.8 227.2zM753.6 604.8c1.6 0 3.2 0 3.2 1.6 1.6 1.6 1.6 1.6 1.6 3.2-1.6 8-1.6 16-3.2 25.6l-3.2 17.6c0 3.2-3.2 4.8-4.8 4.8h-3.2v59.2h1.6l6.4 1.6c6.4 1.6 9.6 8 9.6 12.8 0 6.4-3.2 11.2-9.6 12.8l-233.6 86.4c-3.2 1.6-6.4 1.6-9.6 0l-235.2-84.8c-6.4-1.6-9.6-8-9.6-12.8 0-6.4 3.2-11.2 9.6-12.8l86.4-32c-6.4-19.2-9.6-41.6-8-65.6 1.6-140.8 83.2-224 158.4-224s156.8 83.2 158.4 224c0 24-1.6 44.8-8 64l62.4 22.4v-51.2h-3.2c-3.2 0-4.8-1.6-4.8-4.8l-4.8-43.2c0-1.6 0-3.2 1.6-3.2 1.6-1.6 1.6-1.6 3.2-1.6zM510.4 432c-65.6 0-112 76.8-120 153.6-8 72 94.4 75.2 100.8 30.4 1.6-12.8-14.4-28.8-11.2-33.6 8-27.2 153.6 91.2 152 3.2-1.6-60.8-59.2-153.6-121.6-153.6z" />
<glyph unicode="&#xe959;" glyph-name="service-buildings" d="M276.76 33.947h180.879v184.963h108.723v-184.963h180.879v828.105h-470.481v-828.105zM545.005 764.46h108.721v-108.723h-108.721v108.723zM545.005 589.726h108.721v-108.723h-108.721v108.723zM545.005 414.997h108.721v-108.723h-108.721v108.723zM370.274 764.46h108.721v-108.723h-108.721v108.723zM370.274 589.726h108.721v-108.723h-108.721v108.723zM370.274 414.997h108.721v-108.723h-108.721v108.723zM789.474 787.871v-585.533h69.849v-168.39h164.676v753.923h-234.526zM938.865 281.874h-98.985v98.982h98.982v-98.982zM938.865 440.957h-98.985v98.98h98.982v-98.98zM938.865 600.037h-98.985v98.98h98.982v-98.98zM0 33.947h164.676v168.39h69.849v585.533h-234.526v-753.923zM85.137 699.018h98.982v-98.98h-98.982v98.98zM85.137 539.937h98.982v-98.98h-98.982v98.98zM85.137 380.861h98.982v-98.98h-98.982v98.98z" />
<glyph unicode="&#xe95a;" glyph-name="pizza-service" d="M145.6 272c-116.8 201.6-46.4 460.8 155.2 576 201.6 116.8 460.8 48 577.6-153.6 83.2-142.4 72-315.2-14.4-443.2l44.8-30.4c96 145.6 108.8 339.2 16 500.8-131.2 227.2-422.4 305.6-651.2 174.4s-307.2-424-174.4-651.2c92.8-163.2 267.2-248 441.6-238.4l-3.2 54.4c-155.2-8-308.8 67.2-392 211.2zM764.8 46.4c-59.2-33.6-123.2-51.2-185.6-56l3.2-54.4c72 4.8 144 24 209.6 62.4 67.2 38.4 120 91.2 160 150.4l-44.8 30.4c-36.8-52.8-84.8-99.2-142.4-132.8zM883.2 193.6l-329.6 217.6 22.4-393.6c59.2 3.2 118.4 20.8 174.4 51.2 56 32 99.2 75.2 132.8 124.8zM688 80c-1.6-8-6.4-12.8-12.8-17.6-4.8-3.2-9.6-3.2-14.4-3.2-9.6 0-19.2 4.8-24 14.4-3.2 6.4-4.8 14.4-3.2 20.8s6.4 12.8 12.8 17.6c4.8 1.6 9.6 3.2 14.4 3.2 9.6 0 19.2-4.8 24-14.4 4.8-6.4 6.4-12.8 3.2-20.8zM734.4 177.6c-1.6-1.6-3.2-1.6-6.4-3.2-1.6-1.6-3.2-3.2-4.8-4.8-3.2-3.2-6.4-6.4-9.6-6.4s-6.4 1.6-11.2 6.4c-4.8 6.4-11.2 19.2-17.6 32-11.2-6.4-20.8-9.6-28.8-9.6s-12.8 3.2-14.4 6.4c-4.8 4.8-4.8 17.6-3.2 28.8 3.2 16 9.6 30.4 22.4 38.4 11.2 8 24 9.6 33.6 9.6 16 0 32-4.8 36.8-12.8 6.4-9.6 0-25.6-16-41.6 9.6-9.6 20.8-20.8 25.6-25.6 3.2-4.8 4.8-8 3.2-11.2-3.2-1.6-6.4-3.2-9.6-6.4zM854.4 680c-108.8 188.8-352 254.4-539.2 144-188.8-108.8-254.4-352-144-540.8 76.8-134.4 220.8-204.8 366.4-196.8l-25.6 396.8 329.6-217.6c80 120 89.6 281.6 12.8 414.4zM291.2 729.6c4.8 3.2 9.6 3.2 14.4 3.2 9.6 0 19.2-4.8 24-14.4 3.2-6.4 4.8-14.4 3.2-20.8s-6.4-12.8-12.8-17.6c-4.8-3.2-9.6-3.2-14.4-3.2-9.6 0-19.2 4.8-24 14.4-8 12.8-3.2 30.4 9.6 38.4zM323.2 302.4c-9.6-6.4-22.4-9.6-33.6-9.6-24 0-46.4 12.8-59.2 33.6-19.2 32-8 73.6 25.6 92.8 9.6 6.4 22.4 9.6 33.6 9.6 24 0 46.4-12.8 59.2-33.6 17.6-32 6.4-73.6-25.6-92.8zM403.2 500.8c-3.2-1.6-6.4-3.2-9.6-4.8-4.8-1.6-8-4.8-11.2-4.8-8 0-11.2 8-12.8 14.4-3.2 9.6-8 32-11.2 51.2-9.6-1.6-17.6-3.2-25.6-3.2-19.2 0-32 4.8-35.2 16-3.2 9.6 0 27.2 8 43.2 6.4 11.2 19.2 32 43.2 41.6 8 3.2 16 4.8 24 4.8 33.6 0 65.6-20.8 70.4-35.2s-9.6-33.6-38.4-49.6c11.2-19.2 20.8-38.4 24-46.4s3.2-12.8 1.6-16c-3.2-4.8-8-6.4-14.4-6.4-6.4-3.2-9.6-3.2-12.8-4.8zM459.2 220.8c-4.8-1.6-9.6-3.2-14.4-3.2-9.6 0-19.2 4.8-24 14.4-8 12.8-3.2 30.4 9.6 38.4 4.8 3.2 9.6 3.2 14.4 3.2 9.6 0 19.2-4.8 24-14.4 9.6-14.4 4.8-32-9.6-38.4zM614.4 721.6c-8-4.8-16-6.4-24-6.4-17.6 0-33.6 9.6-43.2 24-14.4 24-4.8 54.4 17.6 67.2 8 4.8 16 6.4 24 6.4 17.6 0 33.6-9.6 43.2-24 14.4-24 6.4-54.4-17.6-67.2zM732.8 406.4c-4.8-3.2-9.6-3.2-14.4-3.2-9.6 0-19.2 4.8-24 14.4-8 12.8-3.2 30.4 9.6 38.4 4.8 3.2 9.6 3.2 14.4 3.2 9.6 0 19.2-4.8 24-14.4 8-14.4 3.2-32-9.6-38.4zM825.6 545.6c-1.6-3.2-4.8-4.8-6.4-8s-3.2-6.4-4.8-9.6-4.8-12.8-12.8-12.8c-3.2 0-8 1.6-12.8 4.8-8 4.8-25.6 17.6-41.6 33.6-20.8-25.6-43.2-36.8-56-28.8-8 4.8-16 19.2-20.8 35.2-4.8 22.4-3.2 46.4 8 62.4 16 25.6 49.6 38.4 73.6 38.4 8 0 14.4-1.6 19.2-4.8 12.8-8 12.8-33.6 0-62.4 20.8-8 40-17.6 48-22.4 6.4-4.8 9.6-8 11.2-12.8 3.2-3.2-1.6-8-4.8-12.8z" />
<glyph unicode="&#xe95b;" d="M672 398.4c-8.8 7.2-20.8 5.6-28-2.4l-112-133.6v413.6c0 11.2-8.8 20-20 20s-20-8.8-20-20v-413.6l-112 133.6c-7.2 8.8-20 9.6-28 2.4-8.8-7.2-9.6-20-2.4-28l128.8-154.4c8-10.4 20-16 33.6-16 0 0 0 0 0 0 12.8 0 25.6 5.6 32.8 15.2l129.6 155.2c7.2 8.8 6.4 20.8-2.4 28z" />
<glyph unicode="&#xe95c;" d="M470.4 612.8c-13.6 12.8-35.2 3.2-35.2-15.2v-299.2c0-18.4 21.6-28 35.2-15.2l159.2 149.6c8.8 8 8.8 22.4 0 30.4l-159.2 149.6z" />
<glyph unicode="&#xe97a;" glyph-name="service-shop" d="M128 520c0-44.8 30.4-81.6 72-92.8v-315.2h-48c-12.8 0-24-11.2-24-24s11.2-24 24-24h720c12.8 0 24 11.2 24 24s-11.2 24-24 24h-48v315.2c41.6 11.2 72 48 72 92.8v24h-768v-24zM608 424c52.8 0 96 43.2 96 96 0-44.8 30.4-81.6 72-92.8v-315.2h-360v312c52.8 0 96 43.2 96 96 0-52.8 43.2-96 96-96zM392 427.2v-315.2h-144v315.2c41.6 11.2 72 48 72 92.8 0-44.8 30.4-81.6 72-92.8zM800 760h-576l-96-192h768l-96 192zM331.2 707.2l-48-96c-1.6-4.8-6.4-6.4-11.2-6.4-1.6 0-3.2 0-4.8 1.6-6.4 3.2-8 9.6-4.8 16l48 96c3.2 6.4 9.6 8 16 4.8 4.8-3.2 8-11.2 4.8-16zM427.2 707.2l-48-96c-1.6-4.8-6.4-6.4-11.2-6.4-1.6 0-3.2 0-4.8 1.6-6.4 3.2-8 9.6-4.8 16l48 96c3.2 6.4 9.6 8 16 4.8 4.8-3.2 8-11.2 4.8-16zM524.8 616c0-6.4-4.8-12.8-12.8-12.8-6.4 0-12.8 4.8-12.8 12.8v96c0 6.4 4.8 12.8 12.8 12.8 6.4 0 12.8-4.8 12.8-12.8v-96zM662.4 604.8c-1.6-1.6-3.2-1.6-6.4-1.6-4.8 0-8 1.6-11.2 6.4l-52.8 96c-3.2 6.4-1.6 12.8 4.8 16s12.8 1.6 16-4.8l52.8-96c4.8-4.8 1.6-12.8-3.2-16zM756.8 604.8c-1.6-1.6-3.2-1.6-4.8-1.6-4.8 0-8 3.2-11.2 6.4l-48 96c-3.2 6.4 0 12.8 4.8 16 6.4 3.2 12.8 0 16-4.8l48-96c4.8-4.8 1.6-12.8-4.8-16zM332.8 252.8v56c-6.4 4.8-12.8 11.2-12.8 20.8 0 12.8 11.2 24 24 24s24-11.2 24-24c0-9.6-4.8-16-12.8-20.8v-56c6.4-4.8 12.8-11.2 12.8-20.8 0-12.8-11.2-24-24-24s-24 11.2-24 24c0 9.6 4.8 16 12.8 20.8zM224 808c0 12.8 11.2 24 24 24h528c12.8 0 24-11.2 24-24s-11.2-24-24-24h-528c-12.8 0-24 11.2-24 24zM548.8 296l-17.6 17.6 67.2 67.2 17.6-17.6-67.2-67.2zM548.8 227.2l-17.6 17.6 136 136 17.6-17.6-136-136zM667.2 312l17.6-17.6-67.2-67.2-17.6 17.6 67.2 67.2z" />
<glyph unicode="&#xe97e;" glyph-name="service-electronics" d="M692.8 574.4h-361.6c-12.8 0-22.4-9.6-22.4-22.4v-219.2c0-12.8 9.6-22.4 22.4-22.4h158.4v-52.8h-49.6c-12.8 0-22.4-9.6-22.4-22.4s9.6-22.4 22.4-22.4h144c12.8 0 22.4 9.6 22.4 22.4s-9.6 22.4-22.4 22.4h-49.6v52.8h158.4c12.8 0 22.4 9.6 22.4 22.4v219.2c0 12.8-11.2 22.4-22.4 22.4zM259.2 668.8h-108.8c-12.8 0-22.4-9.6-22.4-22.4v-337.6c0-12.8 9.6-22.4 22.4-22.4h32v-25.6h-14.4c-12.8 0-22.4-9.6-22.4-22.4s9.6-22.4 22.4-22.4h75.2c12.8 0 22.4 9.6 22.4 22.4s-9.6 22.4-22.4 22.4h-14.4v25.6h32c12.8 0 22.4 9.6 22.4 22.4v337.6c0 12.8-11.2 22.4-24 22.4zM204.8 465.6c12.8 0 22.4-9.6 22.4-22.4v-24c0-12.8-9.6-22.4-22.4-22.4s-22.4 9.6-22.4 22.4v24c0 11.2 11.2 22.4 22.4 22.4zM182.4 536v24c0 12.8 9.6 22.4 22.4 22.4s22.4-9.6 22.4-22.4v-24c0-12.8-9.6-22.4-22.4-22.4-11.2 0-22.4 9.6-22.4 22.4zM873.6 668.8h-108.8c-12.8 0-22.4-9.6-22.4-22.4v-337.6c0-12.8 9.6-22.4 22.4-22.4h32v-25.6h-14.4c-12.8 0-22.4-9.6-22.4-22.4s9.6-22.4 22.4-22.4h75.2c12.8 0 22.4 9.6 22.4 22.4s-9.6 22.4-22.4 22.4h-14.4v25.6h32c12.8 0 22.4 9.6 22.4 22.4v337.6c-1.6 12.8-11.2 22.4-24 22.4zM819.2 465.6c12.8 0 22.4-9.6 22.4-22.4v-24c0-12.8-9.6-22.4-22.4-22.4s-22.4 9.6-22.4 22.4v24c0 11.2 9.6 22.4 22.4 22.4zM796.8 536v24c0 12.8 9.6 22.4 22.4 22.4s22.4-9.6 22.4-22.4v-24c0-12.8-9.6-22.4-22.4-22.4s-22.4 9.6-22.4 22.4z" />
<glyph unicode="&#xe984;" glyph-name="computer-service" d="M894.4 272c0 1.6-1.6 1.6-3.2 1.6h-760c-1.6 0-1.6 0-3.2-1.6 0-1.6 0-1.6 0-3.2 0 0 11.2-70.4 100.8-70.4h566.4c89.6 0 100.8 70.4 100.8 70.4 0 1.6 0 1.6-1.6 3.2zM569.6 222.4h-113.6v25.6h113.6v-25.6zM211.2 300.8h601.6c8 0 16 6.4 16 16v369.6c0 8-6.4 16-16 16h-601.6c-8 0-16-6.4-16-16v-369.6c0-9.6 6.4-16 16-16zM249.6 646.4h523.2v-291.2h-523.2c0 0 0 291.2 0 291.2z" />
<glyph unicode="&#xe986;" glyph-name="service-fashion" d="M417.6 644.8c-14.4-12.8-41.6-11.2-60.8-11.2l4.8-46.4c35.2-17.6 72-12.8 108.8-3.2l4.8 51.2c-16 12.8-44.8-6.4-57.6 9.6zM510.4 744c-6.4 9.6 0 24 0 36.8s-9.6 6.4-11.2 11.2c-1.6 4.8-16 4.8-16 4.8-1.6-8-36.8-48-49.6-60.8s-12.8-25.6-12.8-25.6-6.4-11.2-8-28.8c0 19.2-8 28.8-8 28.8s0 12.8-12.8 25.6c-12.8 12.8-48 52.8-49.6 60.8 0 0-14.4 0-16-4.8s-11.2 1.6-11.2-11.2c0-12.8 6.4-27.2 0-36.8s6.4-22.4 6.4-35.2c-1.6-12.8 14.4-60.8 28.8-67.2 19.2 0 51.2-4.8 62.4 11.2 1.6 3.2 4.8 1.6 6.4-1.6 4.8-14.4 32-4.8 43.2-6.4 4.8 0 9.6-1.6 12.8-4.8 12.8 6.4 28.8 56 28.8 67.2 0 16 12.8 28.8 6.4 36.8zM680 249.6c0 3.2 14.4 1.6 14.4 9.6s9.6 14.4 8 17.6c-1.6 4.8-24 46.4-35.2 57.6s-49.6 64-57.6 83.2c-8 19.2-41.6 59.2-73.6 102.4-24 32-49.6 49.6-60.8 57.6 0 0 0 0-1.6 0-38.4-9.6-78.4-14.4-115.2 3.2-8-4.8-36.8-22.4-64-59.2-32-43.2-65.6-84.8-73.6-102.4-8-19.2-46.4-72-57.6-83.2s-33.6-54.4-35.2-57.6c-1.6-4.8 8-9.6 8-17.6s14.4-6.4 14.4-9.6-1.6-14.4 9.6-16l-8-17.6c0 0-1.6-9.6 4.8-8s-9.6-14.4 12.8-11.2 12.8-12.8 24-14.4l-9.6-16c0 0 6.4-9.6 14.4-6.4 0 0-6.4-12.8-1.6-17.6 3.2-4.8 8 3.2 12.8 8s0-9.6 14.4-6.4l4.8 6.4c0 0 9.6-16 20.8-11.2v-9.6c0 0 9.6 0 12.8 0l-1.6-11.2 11.2 3.2c0 0-1.6-9.6 6.4-11.2 0 0-4.8-6.4-1.6-6.4 1.6 0 24-6.4 35.2 3.2l-1.6 6.4h8l1.6-6.4c0 0 4.8 1.6 11.2 4.8 8 3.2 3.2-9.6 3.2-9.6s8 4.8 14.4 0 16 3.2 25.6 0c0 0 12.8 0 14.4 3.2v8c0 0 6.4-6.4 12.8-1.6v6.4c0 0 4.8 0 9.6-1.6 0 0 0 0 0 0s3.2 0 6.4 0c3.2 0 6.4 0 6.4 0s0 0 0 0c4.8 0 9.6 1.6 9.6 1.6v-6.4c6.4-4.8 12.8 1.6 12.8 1.6v-8c1.6-3.2 14.4-3.2 14.4-3.2 9.6 3.2 19.2-4.8 25.6 0s14.4 0 14.4 0-4.8 14.4 3.2 9.6c8-3.2 11.2-4.8 11.2-4.8l1.6 6.4h8l-1.6-6.4c11.2-9.6 33.6-3.2 35.2-3.2s-1.6 6.4-1.6 6.4c8 0 6.4 11.2 6.4 11.2l11.2-3.2-1.6 11.2c1.6 0 12.8 0 12.8 0v9.6c11.2-4.8 20.8 11.2 20.8 11.2l4.8-6.4c14.4-4.8 9.6 9.6 14.4 6.4 4.8-4.8 9.6-12.8 12.8-8s-1.6 17.6-1.6 17.6c8-3.2 14.4 6.4 14.4 6.4l-9.6 16c11.2 1.6 1.6 17.6 24 14.4s6.4 12.8 12.8 11.2c6.4-1.6 4.8 8 4.8 8l-8 17.6c6.4 0 3.2 11.2 4.8 14.4zM721.6 603.2l24 134.4-19.2 25.6 9.6 19.2h-28.8l9.6-19.2-19.2-25.6zM857.6 369.6h38.4l-9.6 160-19.2 212.8-89.6 38.4-9.6 19.2-9.6-38.4-38.4-217.6-38.4 217.6-8 38.4-9.6-19.2-89.6-38.4-19.2-212.8-9.6-160h38.4l33.6 208 12.8-48-38.4-158.4 108.8-48 19.2 92.8 19.2-92.8 108.8 48-38.4 158.4 12.8 48 35.2-208zM820.8 665.6l-38.4-4.8 25.6 32 12.8-9.6v-17.6z" />
<glyph unicode="&#xe98a;" glyph-name="service-makeup" d="M596.8 788.8c0-1.6 0-1.6 0-3.2 0 0 0 0 0 0l41.6-73.6h124.8l41.6 73.6c0 0 0 0 0 0s0 1.6 0 3.2c0 0 0 1.6 0 3.2 0 0 0 0 0 0 0 1.6 0 1.6 0 3.2v1.6c-3.2 33.6-92.8 35.2-102.4 35.2s-99.2-1.6-105.6-36.8v-1.6c0-1.6 0-1.6 0-3.2 0 0 0 0 0 0s0 0 0-1.6zM649.6 686.4h105.6v-27.2h-105.6v27.2zM604.8 673.6c3.2 9.6 4.8 19.2 4.8 28.8 0 36.8-40 70.4-44.8 73.6 0 0 0 0-1.6 0 0 0-1.6 1.6-1.6 1.6s-1.6 0-1.6 0-1.6 0-3.2 0-1.6 0-3.2 0-1.6 0-1.6 0-1.6 0-1.6-1.6c0 0 0 0-1.6 0-4.8-3.2-44.8-36.8-44.8-73.6 0-9.6 1.6-19.2 4.8-28.8h96zM900.8 580.8c0 11.2-4.8 20.8-11.2 28.8-8 8-17.6 11.2-28.8 11.2v0c-9.6 0-20.8-4.8-27.2-11.2l-70.4-68.8c-3.2 0-4.8 0-8 0v92.8h-105.6v-92.8h-52.8v52.8h-80v-52.8h-40v132.8h-80v-132.8h-27.2v80c0 14.4-11.2 27.2-27.2 27.2v27.2h-92.8v-27.2c-14.4 0-25.6-11.2-27.2-27.2v-83.2c-54.4-12.8-92.8-60.8-92.8-116.8v-356.8h740.8v356.8c0 32-12.8 60.8-33.6 83.2l49.6 48c9.6 8 14.4 17.6 14.4 28.8zM185.6 129.6c0-8-6.4-12.8-12.8-12.8s-12.8 6.4-12.8 12.8v52.8c0 8 6.4 12.8 12.8 12.8s12.8-6.4 12.8-12.8v-52.8zM185.6 236.8c0-8-6.4-12.8-12.8-12.8s-12.8 6.4-12.8 12.8v171.2c0 8 6.4 12.8 12.8 12.8s12.8-6.4 12.8-12.8v-171.2zM664 308.8l-152-161.6c-3.2-3.2-6.4-4.8-9.6-4.8s-6.4 1.6-9.6 4.8l-152 161.6c-32 35.2-32 89.6 0 126.4 16 17.6 36.8 27.2 60.8 27.2s44.8-9.6 60.8-25.6l40-43.2 41.6 43.2c16 17.6 36.8 27.2 60.8 27.2 22.4 0 44.8-9.6 60.8-27.2 30.4-38.4 30.4-92.8-1.6-128zM870.4 571.2l-51.2-49.6c-8 4.8-16 9.6-25.6 12.8l57.6 56c3.2 3.2 6.4 3.2 9.6 3.2s6.4-1.6 9.6-3.2c4.8-6.4 4.8-14.4 0-19.2zM358.4 804.8c0 14.4-11.2 27.2-27.2 27.2h-65.6c-14.4 0-27.2-11.2-27.2-27.2v-105.6h118.4l1.6 105.6zM516.8 646.4h80v-27.2h-80v27.2zM462.4 758.4c-3.2 11.2-14.4 20.8-25.6 20.8-12.8 0-22.4-8-25.6-20.8l-11.2-59.2h75.2l-12.8 59.2zM604.8 435.2v0c-16 0-30.4-6.4-41.6-17.6l-49.6-54.4c-3.2-3.2-6.4-4.8-9.6-4.8s-6.4 1.6-9.6 4.8l-51.2 52.8c-11.2 11.2-25.6 17.6-40 17.6v0c-16 0-30.4-6.4-40-17.6-22.4-25.6-22.4-64 0-89.6l140.8-150.4 140.8 150.4c22.4 25.6 22.4 64 0 89.6-9.6 12.8-25.6 19.2-40 19.2z" />
<glyph unicode="&#xe990;" glyph-name="service-mobile" d="M667.2 832h-323.2c-30.4 0-56-25.6-56-56v-656c0-30.4 25.6-56 56-56h323.2c30.4 0 56 25.6 56 56v656c0 30.4-25.6 56-56 56zM425.6 798.4h160c4.8 0 8-6.4 8-12.8 0-8-3.2-12.8-8-12.8h-160c-4.8 0-8 6.4-8 12.8 1.6 6.4 4.8 12.8 8 12.8zM505.6 120c-19.2 0-35.2 16-35.2 35.2s16 35.2 35.2 35.2c19.2 0 35.2-16 35.2-35.2s-16-35.2-35.2-35.2zM681.6 241.6h-352v496h350.4c1.6 0 1.6-496 1.6-496z" />
<glyph unicode="&#xe994;" glyph-name="sofa-service" d="M809.6 244.8c-28.8-3.2-57.6-8-88-11.2-1.6-20.8-4.8-44.8 20.8-57.6 16 0 30.4 0 46.4 0 22.4 12.8 30.4 40 20.8 68.8zM844.8 556.8c-32 9.6-65.6-6.4-80-38.4-12.8-25.6-24-51.2-35.2-76.8-145.6 43.2-289.6 41.6-435.2 0-11.2 25.6-22.4 51.2-33.6 75.2-12.8 30.4-41.6 46.4-73.6 43.2-28.8-3.2-54.4-27.2-59.2-57.6s9.6-59.2 40-73.6c9.6-4.8 11.2-9.6 12.8-17.6 3.2-28.8 6.4-56 9.6-84.8 3.2-24 16-41.6 36.8-49.6 17.6-6.4 36.8-9.6 56-11.2 152-1.6 304 0 456 0 8 0 16 0 22.4 1.6 43.2 6.4 67.2 25.6 70.4 59.2 3.2 27.2 6.4 56 9.6 83.2 1.6 9.6 3.2 16 14.4 20.8 27.2 12.8 41.6 40 38.4 68.8-1.6 27.2-22.4 49.6-49.6 57.6zM780.8 726.4c-19.2 6.4-76.8 8-96 8-51.2 0-110.4 0-171.2 0s-121.6 0-171.2 0c-19.2 0-78.4-1.6-96-8-54.4-16-57.6-80-52.8-134.4 72 1.6 100.8-46.4 121.6-105.6 67.2 12.8 134.4 19.2 200 19.2 67.2 0 132.8-6.4 200-19.2 20.8 59.2 49.6 107.2 121.6 105.6 1.6 54.4-1.6 116.8-56 134.4zM214.4 244.8c28.8-3.2 57.6-8 88-11.2 1.6-20.8 4.8-44.8-20.8-57.6-16 0-30.4 0-46.4 0-22.4 12.8-28.8 40-20.8 68.8z" />
<glyph unicode="&#xe99c;" glyph-name="service-book" d="M124.8 779.2h139.2v-68.8h-139.2v68.8zM124.8 681.6h139.2v-472h-139.2v472zM150.4 297.6c0-24 19.2-43.2 43.2-43.2s43.2 19.2 43.2 43.2c0 24-19.2 43.2-43.2 43.2s-43.2-19.2-43.2-43.2zM124.8 128h139.2v56h-139.2v-56zM291.2 193.6v-65.6h180.8v65.6c-8 4.8-30.4 17.6-83.2 17.6-51.2 0-83.2-11.2-97.6-17.6zM291.2 592c14.4-6.4 46.4-17.6 97.6-17.6 52.8 0 75.2 12.8 83.2 17.6v48h-180.8v-48zM291.2 561.6v-339.2c20.8 8 52.8 16 97.6 16 40 0 67.2-6.4 83.2-14.4v336c-16-8-43.2-14.4-83.2-14.4-46.4 0-78.4 8-97.6 16zM764.8 782.4l-94.4-19.2 14.4-67.2 94.4 19.2-14.4 67.2zM880 225.6l-96-19.2-94.4 462.4 94.4 19.2 96-462.4zM846.4 307.2c-4.8 24-24 40-41.6 35.2-17.6-3.2-28.8-25.6-24-49.6s24-40 41.6-35.2c17.6 4.8 28.8 27.2 24 49.6zM884.8 198.4l-94.4-19.2 11.2-54.4 94.4 19.2-11.2 54.4zM512 710.4h139.2v68.8h-139.2v-68.8zM512 128h139.2v56h-139.2v-56zM512 280h139.2v332.8h-139.2v-332.8zM512 211.2h139.2v41.6h-139.2v-41.6zM512 640h139.2v41.6h-139.2v-41.6z" />
<glyph unicode="&#xe99d;" glyph-name="books-service" d="M124.8 779.2h139.2v-68.8h-139.2v68.8zM124.8 681.6h139.2v-472h-139.2v472zM150.4 297.6c0-24 19.2-43.2 43.2-43.2s43.2 19.2 43.2 43.2c0 24-19.2 43.2-43.2 43.2s-43.2-19.2-43.2-43.2zM124.8 128h139.2v56h-139.2v-56zM291.2 193.6v-65.6h180.8v65.6c-8 4.8-30.4 17.6-83.2 17.6-51.2 0-83.2-11.2-97.6-17.6zM291.2 592c14.4-6.4 46.4-17.6 97.6-17.6 52.8 0 75.2 12.8 83.2 17.6v48h-180.8v-48zM291.2 561.6v-339.2c20.8 8 52.8 16 97.6 16 40 0 67.2-6.4 83.2-14.4v336c-16-8-43.2-14.4-83.2-14.4-46.4 0-78.4 8-97.6 16zM764.8 782.4l-94.4-19.2 14.4-67.2 94.4 19.2-14.4 67.2zM880 225.6l-96-19.2-94.4 462.4 94.4 19.2 96-462.4zM846.4 307.2c-4.8 24-24 40-41.6 35.2-17.6-3.2-28.8-25.6-24-49.6s24-40 41.6-35.2c17.6 4.8 28.8 27.2 24 49.6zM884.8 198.4l-94.4-19.2 11.2-54.4 94.4 19.2-11.2 54.4zM512 710.4h139.2v68.8h-139.2v-68.8zM512 128h139.2v56h-139.2v-56zM512 280h139.2v332.8h-139.2v-332.8zM512 211.2h139.2v41.6h-139.2v-41.6zM512 640h139.2v41.6h-139.2v-41.6z" />
<glyph unicode="&#xe99f;" glyph-name="mobile-service" d="M688 832h-323.2c-30.4 0-56-25.6-56-56v-656c0-30.4 25.6-56 56-56h323.2c30.4 0 56 25.6 56 56v656c0 30.4-25.6 56-56 56zM446.4 798.4h160c4.8 0 8-6.4 8-12.8 0-8-3.2-12.8-8-12.8h-160c-4.8 0-8 6.4-8 12.8 1.6 6.4 4.8 12.8 8 12.8zM526.4 120c-19.2 0-35.2 16-35.2 35.2s16 35.2 35.2 35.2c19.2 0 35.2-16 35.2-35.2s-16-35.2-35.2-35.2zM702.4 241.6h-352v496h350.4c1.6 0 1.6-496 1.6-496z" />
<glyph unicode="&#xea12;" glyph-name="service-real-estate" d="M390.4 374.4c17.6 0 38.4-1.6 56-4.8v54.4h132.8v-97.6c16-6.4 27.2-11.2 38.4-19.2 20.8-14.4 32-33.6 32-54.4 25.6 6.4 49.6 16 70.4 30.4 8 4.8 16 9.6 20.8 12.8v152l-228.8 252.8-232-256v-91.2c16 3.2 30.4 8 46.4 12.8 19.2 4.8 41.6 8 64 8zM513.6 763.2l257.6-288h57.6l-316.8 353.6-131.2-144v57.6h-96v-163.2l-91.2-104h59.2zM800 270.4c-14.4 0-33.6-6.4-57.6-22.4-44.8-30.4-99.2-44.8-148.8-44.8-40 0-78.4 9.6-104 24-12.8 8-12.8 11.2-4.8 11.2 16 0 60.8-11.2 92.8-11.2 16 0 27.2 3.2 30.4 9.6 12.8 35.2-36.8 46.4-88 67.2-36.8 14.4-83.2 27.2-126.4 27.2-17.6 0-36.8-1.6-52.8-6.4-75.2-20.8-129.6-36.8-145.6-41.6v-198.4c30.4 11.2 67.2 22.4 88 22.4 38.4 0 190.4-48 276.8-48 12.8 0 22.4 1.6 32 3.2 73.6 17.6 200 121.6 235.2 156.8 12.8 17.6 6.4 51.2-27.2 51.2z" />
<glyph unicode="&#xea17;" glyph-name="service-taxi" d="M864 556.8c-3.2 0-6.4 0-11.2-1.6l-36.8-9.6-40 96c-11.2 28.8-46.4 52.8-78.4 52.8h-25.6v80c0 14.4-11.2 25.6-25.6 25.6h-268.8c-14.4 0-25.6-11.2-25.6-25.6v-80h-27.2c-30.4 0-65.6-24-78.4-52.8l-40-96-36.8 9.6c-3.2 1.6-6.4 1.6-11.2 1.6-19.2 0-32-14.4-32-35.2v-20.8c0-24 19.2-41.6 41.6-41.6h3.2l-6.4-14.4c-11.2-27.2-19.2-72-19.2-100.8v-192c0-24 19.2-41.6 41.6-41.6h52.8c24 0 41.6 19.2 41.6 41.6v46.4h457.6v-46.4c0-24 19.2-41.6 41.6-41.6h51.2c24 0 41.6 19.2 41.6 41.6v192c0 28.8-9.6 73.6-19.2 100.8l-6.4 14.4h3.2c24 0 41.6 19.2 41.6 41.6v20.8c3.2 20.8-11.2 35.2-28.8 35.2zM614.4 764.8c0 0 0 1.6 0 0l20.8 1.6c0 0 1.6 0 1.6-1.6v-70.4c0 0 0 0 0 0h-20.8c0 0 0 0 0 0v70.4zM473.6 766.4h24c0 0 1.6 0 1.6-1.6l27.2-70.4 25.6 32c0 0 0 1.6 0 1.6l-24 36.8c0 0 0 1.6 0 1.6h22.4c0 0 1.6 0 1.6-1.6l12.8-20.8c0 0 0 0 1.6 0l12.8 20.8c0 0 1.6 1.6 1.6 1.6h22.4c0 0 0 0 0-1.6l-24-36.8c0 0 0-1.6 0-1.6l25.6-32c0 0 0 0 0 0h-22.4c0 0 0 0 0 0l-14.4 22.4c0 0 0 0-1.6 0l-14.4-22.4c0 0 0 0 0 0h-43.2c0 0 0 0 0 0l-4.8 14.4c0 0 0 1.6-1.6 1.6h-27.2c0 0-1.6 0-1.6-1.6l-4.8-14.4c0 0 0 0 0 0h-20.8c0 0 0 0 0 0l25.6 72c-1.6-1.6 0 0 0 0zM404.8 694.4v56c0 0 0 1.6-1.6 1.6h-24c0 0-1.6 0-1.6 1.6v12.8c0 0 0 1.6 1.6 1.6h70.4c0 0 1.6 0 1.6-1.6v-14.4c0 0 0-1.6-1.6-1.6h-24c0 0-1.6 0-1.6-1.6v-56c0 0 0 0 0 0l-19.2 1.6c0 0 0 0 0 0zM238.4 483.2l59.2 145.6c6.4 17.6 28.8 32 46.4 32h334.4c19.2 0 40-14.4 46.4-32l59.2-145.6c6.4-17.6-1.6-32-20.8-32h-504c-19.2 1.6-28.8 16-20.8 32zM372.8 296c0-9.6-8-17.6-17.6-17.6h-113.6c-9.6 0-17.6 8-17.6 17.6v54.4c0 9.6 8 17.6 17.6 17.6h113.6c9.6 0 17.6-8 17.6-17.6 0 0 0-54.4 0-54.4zM796.8 296c0-9.6-8-17.6-17.6-17.6h-113.6c-9.6 0-17.6 8-17.6 17.6v54.4c0 9.6 8 17.6 17.6 17.6h113.6c9.6 0 17.6-8 17.6-17.6v-54.4zM494.4 724.8c0 0 0 0 0 0l-8 20.8c0 0 0 0-1.6 0l-9.6-19.2c0 0 0-1.6 0-1.6 1.6 0 19.2 0 19.2 0z" />
<glyph unicode="&#xea20;" glyph-name="car-service" d="M848 536c0 0-1.6 1.6-1.6 1.6l-27.2 25.6c22.4 4.8 46.4 24 46.4 43.2 0 22.4-30.4 30.4-57.6 30.4s-30.4-19.2-32-32l-67.2 67.2c-14.4 14.4-41.6 25.6-60.8 25.6h-272c-19.2 0-46.4-11.2-60.8-25.6l-68.8-67.2c0 12.8-3.2 32-32 32-27.2 0-57.6-8-57.6-30.4 0-19.2 24-38.4 46.4-43.2l-27.2-25.6c0 0-1.6-1.6-1.6-1.6-27.2-24-46.4-70.4-46.4-104v-99.2c0-22.4 9.6-44.8 24-60.8v-38.4c0-22.4 19.2-40 41.6-40h49.6c22.4 0 41.6 17.6 41.6 40v9.6h452.8v-9.6c0-22.4 19.2-40 41.6-40h49.6c22.4 0 41.6 17.6 41.6 40v38.4c16 16 24 38.4 24 62.4v97.6c1.6 33.6-17.6 80-46.4 104zM340.8 641.6c9.6 8 27.2 14.4 35.2 14.4h272c8 0 25.6-6.4 35.2-14.4l91.2-88h-524.8l91.2 88zM160 448c0 24 19.2 43.2 41.6 43.2 24 0 99.2-44.8 99.2-68.8s-76.8-19.2-99.2-19.2c-24 0-41.6 20.8-41.6 44.8zM286.4 288h-64c-12.8 4.8-22.4 9.6-28.8 14.4-3.2 3.2-6.4 4.8-8 8s-3.2 4.8-4.8 8c-6.4 17.6 6.4 32 6.4 32h81.6l54.4-62.4h-36.8zM628.8 288h-233.6c-24 0-44.8 19.2-44.8 44.8h323.2c0-25.6-19.2-44.8-44.8-44.8zM640 361.6h-256c-27.2 0-48 33.6-48 73.6h352c0-40-20.8-73.6-48-73.6zM843.2 316.8c-1.6-3.2-3.2-4.8-4.8-8s-4.8-4.8-8-8-16-9.6-28.8-14.4h-100.8l54.4 62.4h81.6c0 1.6 12.8-14.4 6.4-32zM822.4 403.2c-24 0-99.2-4.8-99.2 19.2s76.8 68.8 99.2 68.8c24 0 41.6-19.2 41.6-43.2s-17.6-44.8-41.6-44.8z" />
</font>
</defs>
</svg>
